<?xml version="1.0" encoding="UTF-8" ?>
<!DOCTYPE svg PUBLIC "-//W3C//DTD SVG 1.1//EN" "http://www.w3.org/Graphics/SVG/1.1/DTD/svg11.dtd">
<svg width="634pt" height="338pt" viewBox="0 0 634 338" version="1.1" xmlns="http://www.w3.org/2000/svg">
<g id="#ffffffff">
<path fill="#ffffff" opacity="1.00" d=" M 0.00 0.00 L 634.00 0.00 L 634.00 338.00 L 0.00 338.00 L 0.00 0.00 M 338.35 0.74 L 338.17 1.53 C 336.93 2.53 335.76 3.59 334.73 4.80 C 328.53 12.03 322.14 19.10 315.99 26.36 C 311.27 31.64 306.62 36.98 302.04 42.37 C 295.89 49.32 289.74 56.28 283.73 63.35 C 278.10 69.66 272.59 76.07 267.01 82.43 C 266.09 83.50 265.17 84.58 264.30 85.70 C 261.87 85.60 259.43 85.68 257.01 85.96 C 241.28 87.64 225.54 89.46 210.02 92.54 C 204.55 93.46 199.08 94.42 193.69 95.74 C 188.13 96.97 182.48 97.90 177.01 99.52 C 171.00 100.84 165.08 102.50 159.12 104.04 L 159.43 104.40 C 152.06 105.79 144.93 108.40 137.80 110.76 C 132.33 112.67 126.56 114.03 121.48 116.91 L 121.26 116.38 C 113.97 119.54 106.46 122.18 99.23 125.50 C 91.10 129.15 83.05 132.98 75.15 137.09 L 75.26 137.34 C 68.57 140.34 62.33 144.25 56.05 148.00 C 67.06 158.93 77.98 170.01 89.31 180.62 L 89.24 180.91 C 94.31 186.12 99.72 190.97 104.79 196.19 C 108.83 200.03 112.49 204.30 116.88 207.77 C 119.76 204.74 122.97 202.05 126.06 199.24 C 132.31 194.23 138.40 188.95 145.29 184.82 L 145.13 184.26 C 150.36 181.63 155.03 178.03 160.10 175.11 C 167.02 171.20 174.04 167.47 181.20 164.04 C 186.51 161.64 191.90 159.45 197.25 157.14 C 199.26 156.24 201.40 155.65 203.60 155.41 C 194.55 165.49 185.57 175.67 176.91 186.08 C 183.59 184.19 190.29 182.36 197.06 180.83 C 198.77 180.56 200.20 179.57 201.46 178.44 C 216.39 165.28 231.46 152.29 246.38 139.11 C 251.84 134.47 257.17 129.69 262.59 125.00 C 267.26 120.99 271.82 116.87 276.49 112.87 C 280.53 109.30 284.69 105.85 288.64 102.17 C 295.01 96.88 301.07 91.23 307.40 85.88 C 309.27 84.16 311.43 82.75 313.10 80.80 C 316.99 86.07 321.03 91.24 324.99 96.46 C 328.63 101.29 332.30 106.10 336.00 110.88 C 341.19 118.18 347.11 124.95 352.10 132.39 L 352.49 132.11 C 355.77 137.65 360.20 142.41 363.97 147.62 C 369.25 154.88 374.99 161.81 380.14 169.16 L 380.72 168.68 C 380.84 169.19 381.07 170.20 381.19 170.71 C 394.36 172.75 407.62 174.44 420.71 177.02 C 434.93 180.18 449.22 183.20 463.09 187.73 C 457.94 178.72 451.80 170.29 446.07 161.64 C 446.45 161.54 447.20 161.32 447.57 161.21 C 453.82 164.78 460.53 167.54 466.86 170.99 C 471.93 173.83 476.90 176.84 481.88 179.84 C 486.16 182.66 490.39 185.57 494.62 188.47 C 500.63 192.84 506.20 197.76 512.00 202.38 C 513.74 204.30 515.53 206.33 517.75 207.69 C 526.85 198.83 535.92 189.91 544.91 180.93 L 545.04 180.37 C 555.59 171.18 564.95 160.70 575.25 151.23 C 576.14 150.16 577.63 149.34 577.88 147.88 C 572.21 144.05 566.06 140.92 560.02 137.68 C 553.14 133.88 546.05 130.43 538.81 127.38 L 538.90 127.15 C 532.52 124.60 526.36 121.48 519.81 119.39 L 519.92 119.08 C 515.04 117.42 510.25 115.46 505.35 113.83 C 500.19 111.77 494.77 110.44 489.64 108.29 L 488.97 109.26 L 489.44 108.31 C 482.64 106.39 475.91 104.21 469.04 102.57 C 460.74 100.11 452.29 98.06 443.77 96.54 L 443.90 96.26 C 428.28 93.16 412.63 90.13 396.81 88.24 C 393.19 81.83 388.60 76.02 384.90 69.66 L 384.54 69.91 C 381.79 64.58 377.85 59.99 374.88 54.79 L 374.56 55.05 C 372.15 50.44 368.92 46.33 366.14 41.95 C 356.84 28.24 348.00 14.20 338.35 0.74 M 83.56 227.68 C 83.27 227.99 82.68 228.61 82.39 228.92 C 84.69 229.03 86.99 229.04 89.30 229.07 C 85.99 234.81 82.43 240.40 79.01 246.08 C 78.48 247.82 77.20 245.91 76.65 245.38 L 76.62 245.39 C 73.63 239.79 70.03 234.55 66.86 229.06 C 69.35 229.06 71.84 229.01 74.30 228.64 C 69.50 226.72 64.09 228.19 59.04 227.72 C 56.55 228.10 53.18 226.71 51.36 228.89 C 53.50 229.02 55.64 229.05 57.79 229.09 C 61.14 234.86 64.87 240.39 68.21 246.16 L 68.55 246.14 C 69.41 249.19 72.62 251.57 72.70 254.67 C 68.29 262.56 63.18 270.08 58.92 278.06 C 56.52 278.20 54.12 278.23 51.72 278.32 C 51.95 278.55 52.40 279.01 52.63 279.24 C 56.08 279.47 59.56 279.06 63.02 279.31 C 64.47 279.21 66.33 279.83 67.32 278.37 C 65.00 278.18 62.68 278.20 60.36 278.19 C 61.47 275.00 63.66 272.38 65.34 269.50 C 68.23 264.92 70.80 260.14 73.94 255.72 C 75.21 257.51 76.47 259.32 77.67 261.16 C 79.61 264.97 82.16 268.43 84.19 272.19 L 84.58 272.17 C 85.48 274.18 86.62 276.07 87.89 277.87 C 85.46 277.96 83.03 278.02 80.61 278.18 L 81.37 279.04 C 87.23 279.57 93.16 279.09 99.04 279.29 C 100.49 279.08 102.47 279.71 103.39 278.16 C 101.28 278.02 99.17 277.99 97.06 277.97 C 95.72 275.73 94.36 273.52 92.99 271.31 L 92.70 271.36 C 90.98 267.75 88.58 264.53 86.76 260.97 L 86.15 260.96 C 84.35 256.70 81.30 253.15 79.27 249.03 C 82.66 242.10 87.39 235.81 91.16 229.04 C 93.59 229.02 96.01 229.04 98.44 228.95 C 98.19 228.63 97.69 227.99 97.44 227.67 C 92.82 227.60 88.17 227.59 83.56 227.68 M 170.38 228.89 C 173.10 229.05 175.82 229.01 178.53 229.00 C 175.03 239.11 170.99 249.03 167.30 259.09 C 166.48 261.57 165.02 263.94 164.95 266.61 C 164.15 267.55 163.57 268.75 162.47 269.40 C 161.37 265.83 159.97 262.38 158.71 258.87 L 158.23 258.88 C 156.92 253.49 154.26 248.56 152.77 243.23 L 152.38 243.57 C 150.97 238.61 148.82 233.89 147.02 229.06 C 149.81 229.01 152.60 229.03 155.40 228.94 L 154.64 227.91 C 147.43 227.57 140.16 227.67 132.95 227.86 C 132.64 228.11 132.03 228.61 131.72 228.86 C 134.09 229.03 136.46 229.02 138.83 229.08 C 140.85 234.42 143.00 239.72 145.01 245.07 C 146.71 249.71 148.67 254.25 150.28 258.93 L 150.81 258.93 C 151.47 262.85 153.37 266.39 154.76 270.08 C 156.11 273.49 157.10 277.07 158.89 280.29 C 159.36 280.17 160.29 279.91 160.76 279.79 C 162.25 275.97 164.10 272.18 164.96 268.18 C 170.28 255.27 175.25 242.20 180.20 229.14 C 182.59 229.06 184.99 228.99 187.37 228.71 C 187.10 228.48 186.56 228.02 186.29 227.79 C 182.53 227.46 178.73 227.92 174.95 227.66 C 173.35 227.72 171.33 227.12 170.38 228.89 M 1.98 227.78 L 1.98 228.99 C 4.65 229.00 7.32 229.00 10.00 229.02 C 10.00 231.72 10.02 234.43 10.01 237.13 C 9.95 242.06 10.05 246.99 10.03 251.92 C 9.98 254.94 10.00 257.97 10.02 260.99 C 9.97 264.33 9.99 267.67 10.04 271.01 C 10.01 273.35 10.01 275.68 10.00 278.02 C 7.22 278.03 4.44 278.01 1.66 278.12 C 2.42 279.83 4.57 279.01 6.01 279.28 C 19.59 279.10 33.18 279.50 46.76 279.08 C 46.66 273.66 46.96 268.23 46.65 262.82 C 44.98 263.67 44.94 265.73 44.25 267.26 C 42.60 272.23 38.73 277.11 33.21 277.73 C 27.94 278.24 22.62 278.14 17.34 277.80 C 17.41 275.54 17.45 273.29 17.46 271.04 C 17.47 267.73 17.49 264.42 17.46 261.11 C 17.48 258.03 17.49 254.96 17.45 251.90 C 17.48 246.96 17.53 242.02 17.48 237.09 C 17.51 234.44 17.50 231.79 17.35 229.15 C 20.35 229.05 23.36 228.98 26.37 228.80 C 25.22 227.60 23.51 227.73 22.00 227.71 C 15.33 227.78 8.66 227.69 1.98 227.78 M 106.67 228.86 C 109.59 228.99 112.53 228.96 115.45 229.27 C 115.28 231.87 115.24 234.48 115.26 237.10 C 115.25 242.05 115.30 247.00 115.32 251.95 C 115.29 254.95 115.33 257.95 115.33 260.95 C 115.32 263.95 115.35 266.95 115.35 269.96 C 115.33 272.55 115.39 275.14 115.54 277.73 C 112.60 278.01 109.65 278.09 106.71 278.31 C 108.21 279.54 110.24 279.17 112.03 279.28 C 118.36 279.21 124.69 279.33 131.02 279.17 L 130.93 278.03 C 128.28 278.03 125.63 278.04 122.98 278.05 C 123.00 275.38 123.00 272.72 122.98 270.05 C 122.99 267.02 123.00 263.99 123.00 260.96 C 123.01 257.92 123.01 254.89 122.97 251.86 C 122.96 246.95 123.05 242.04 122.99 237.14 C 122.98 234.42 122.99 231.71 123.01 229.00 C 125.68 229.00 128.35 229.00 131.02 229.00 L 131.01 227.77 C 124.65 227.69 118.30 227.79 111.94 227.71 C 110.13 227.76 108.04 227.38 106.67 228.86 M 283.12 256.92 C 281.75 269.31 293.32 282.14 306.14 279.86 C 310.61 279.76 314.63 274.77 319.03 277.59 C 318.96 273.23 319.02 268.87 318.99 264.51 C 320.56 264.52 322.14 264.52 323.72 264.52 C 323.69 264.26 323.64 263.73 323.62 263.46 C 317.83 263.50 312.04 263.57 306.25 263.41 C 306.23 263.70 306.21 264.28 306.19 264.57 C 308.54 264.51 310.89 264.50 313.25 264.51 C 313.19 268.13 313.86 272.31 311.29 275.29 C 306.57 281.03 295.98 279.93 292.72 273.16 C 289.63 266.96 289.74 259.73 290.31 252.99 C 290.71 247.80 292.63 242.06 297.51 239.47 C 302.44 237.18 309.14 237.77 312.77 242.15 C 314.99 244.42 315.22 247.76 316.85 250.38 C 317.14 246.25 316.99 242.10 316.93 237.97 C 312.74 240.99 308.46 236.81 304.02 237.20 C 293.20 236.53 283.73 246.43 283.12 256.92 M 353.79 254.10 C 358.57 261.00 368.60 259.19 374.40 264.60 C 378.70 268.57 376.32 276.59 370.88 278.22 C 365.47 280.05 358.45 278.82 355.24 273.72 C 353.50 271.45 353.48 268.34 351.79 266.08 C 351.74 270.31 351.70 274.54 351.73 278.78 C 353.47 278.45 355.23 277.70 356.98 278.51 C 362.73 280.33 369.47 281.03 374.87 277.83 C 380.29 274.85 382.85 267.57 380.44 261.88 C 378.05 257.01 372.26 256.10 367.61 254.60 C 363.51 253.27 358.46 252.26 356.39 248.02 C 354.54 242.84 360.08 237.98 365.02 238.22 C 370.96 237.66 375.59 242.97 376.24 248.51 L 377.27 248.53 C 377.25 245.07 377.23 241.62 377.26 238.17 C 373.23 240.77 369.29 236.26 365.01 237.20 C 356.47 236.55 349.75 246.47 353.79 254.10 M 446.34 237.24 C 441.25 250.81 435.95 264.30 430.86 277.88 C 428.89 277.97 426.90 278.04 424.97 278.44 C 427.11 279.68 429.65 279.17 432.01 279.28 C 434.35 279.18 436.89 279.71 439.01 278.40 C 436.76 277.95 434.46 277.98 432.19 278.00 C 433.84 272.78 436.15 267.81 437.86 262.61 C 442.29 262.38 446.74 262.57 451.18 262.47 C 453.26 267.60 455.18 272.80 457.16 277.97 C 454.97 277.99 452.79 277.99 450.62 278.08 L 451.36 279.11 C 457.22 279.47 463.12 279.14 469.00 279.24 L 469.02 278.00 C 467.30 278.01 465.58 278.01 463.87 278.03 C 458.63 264.51 453.25 251.04 448.31 237.41 C 447.82 237.37 446.83 237.28 446.34 237.24 M 199.60 238.30 C 201.21 240.12 204.00 238.92 206.11 239.20 C 206.41 252.13 206.19 265.07 206.23 278.00 C 204.07 278.00 201.93 278.00 199.78 278.00 L 199.73 279.23 C 211.51 279.21 223.30 279.36 235.08 279.16 C 236.11 274.97 235.28 270.23 235.40 265.84 C 233.26 268.71 232.98 272.72 230.14 275.18 C 225.36 279.79 218.14 277.47 212.21 277.95 C 212.32 265.05 212.20 252.14 212.27 239.24 C 214.61 239.15 217.20 239.75 219.27 238.36 C 212.72 238.14 206.16 238.23 199.60 238.30 M 239.49 238.31 C 241.10 240.09 243.81 238.93 245.90 239.18 C 246.12 252.12 245.94 265.05 246.00 277.99 C 243.56 278.01 241.00 277.68 238.73 278.76 C 240.46 279.21 242.27 279.28 244.06 279.27 C 254.45 279.22 264.84 279.27 275.23 279.24 C 275.25 274.99 275.24 270.75 275.28 266.51 L 274.21 266.45 C 273.62 271.47 270.37 276.70 265.17 277.83 C 260.79 278.24 256.39 277.89 252.00 278.00 C 252.00 271.25 252.00 264.50 252.00 257.75 C 255.14 257.93 259.06 256.88 261.35 259.69 C 263.38 261.54 262.90 264.78 264.91 266.65 C 265.03 260.34 265.11 254.01 264.86 247.69 C 263.22 249.72 263.03 252.50 261.46 254.56 C 259.00 257.10 255.19 256.70 251.96 256.73 C 252.07 250.88 251.91 245.03 252.07 239.19 C 256.69 239.60 261.54 238.48 266.00 240.00 C 269.91 241.34 270.51 245.84 272.91 248.67 C 273.11 245.17 272.98 241.67 272.93 238.18 C 261.79 238.37 250.64 238.12 239.49 238.31 M 327.11 238.20 L 327.02 239.25 C 329.03 239.24 331.05 239.22 333.08 239.18 C 333.46 252.11 333.15 265.05 333.24 277.99 C 330.94 277.99 328.64 277.99 326.35 278.09 L 327.21 279.08 C 333.33 279.52 339.49 279.10 345.63 279.27 L 345.76 278.01 C 343.57 277.99 341.38 277.98 339.20 277.94 C 339.33 265.04 339.20 252.14 339.27 239.24 C 341.60 239.14 344.23 239.80 346.29 238.34 C 339.89 238.10 333.50 238.35 327.11 238.20 M 387.54 238.33 C 389.22 240.07 391.93 238.96 394.06 239.17 C 394.49 252.10 394.13 265.05 394.24 277.99 C 392.07 277.99 389.91 277.99 387.75 278.00 L 387.78 279.23 C 399.68 279.28 411.57 279.23 423.47 279.25 C 423.47 274.87 423.66 270.49 423.32 266.12 C 420.85 269.92 419.85 275.29 415.14 277.17 C 410.35 278.78 405.15 277.75 400.19 277.93 C 400.33 265.04 400.20 252.15 400.26 239.26 C 402.60 239.14 405.23 239.75 407.31 238.35 C 400.72 238.17 394.13 238.20 387.54 238.33 M 466.36 238.47 C 466.57 241.97 466.44 245.48 466.59 248.98 C 468.59 247.03 468.85 243.90 470.91 241.95 C 473.46 239.10 477.60 239.20 481.11 239.13 C 481.42 252.08 481.17 265.04 481.24 277.99 C 478.94 277.99 476.65 277.98 474.37 278.08 L 475.18 279.08 C 481.33 279.51 487.52 279.11 493.69 279.26 L 493.71 278.00 C 491.54 277.99 489.38 277.98 487.21 277.96 C 487.31 265.04 487.21 252.12 487.26 239.21 C 490.67 239.20 494.66 239.01 497.29 241.62 C 499.64 243.65 500.14 246.87 501.87 249.32 C 502.10 245.61 501.99 241.90 501.94 238.20 C 490.08 238.45 478.20 237.92 466.36 238.47 M 504.59 238.81 C 506.93 239.34 509.35 239.27 511.74 239.26 C 511.76 248.48 511.75 257.71 511.74 266.93 C 511.66 270.67 512.82 274.74 515.91 277.10 C 520.17 280.31 525.93 280.45 530.99 279.57 C 535.98 278.64 540.26 274.23 540.46 269.06 C 540.61 259.31 540.39 249.55 540.54 239.80 C 542.31 238.58 544.90 239.47 546.99 239.23 L 546.88 238.20 C 542.15 238.31 537.41 238.16 532.68 238.30 C 534.22 240.39 537.33 238.82 539.50 239.24 C 539.50 247.81 539.48 256.39 539.52 264.96 C 539.47 267.63 539.46 270.48 538.17 272.91 C 535.34 278.94 526.88 280.58 521.37 277.44 C 518.01 274.72 517.70 270.00 517.73 266.00 C 517.86 257.06 517.55 248.12 517.90 239.18 C 519.92 239.22 521.94 239.24 523.97 239.26 L 523.97 238.23 C 517.53 238.62 510.92 237.50 504.59 238.81 M 550.11 238.21 L 549.97 239.25 C 552.01 239.24 554.05 239.22 556.09 239.18 C 556.45 252.11 556.15 265.06 556.24 278.00 C 554.07 278.00 551.90 278.00 549.74 278.00 L 549.79 279.24 C 556.08 279.26 562.36 279.23 568.65 279.27 L 568.73 278.01 C 566.54 278.00 564.36 277.98 562.19 277.92 C 562.28 271.25 562.30 264.57 562.18 257.89 C 566.13 257.88 571.06 256.72 574.10 259.95 C 577.93 265.01 574.68 272.36 578.53 277.42 C 581.29 280.25 585.69 279.72 589.19 278.88 C 592.41 279.48 595.71 279.21 598.97 279.28 C 600.41 279.21 602.09 279.58 603.25 278.45 C 600.98 277.92 598.64 277.99 596.33 277.99 C 598.13 272.82 600.29 267.78 602.08 262.60 C 606.45 262.38 610.84 262.62 615.21 262.39 C 617.58 267.45 619.29 272.79 621.36 277.98 C 619.11 277.99 616.87 277.98 614.63 278.06 L 615.35 279.11 C 621.22 279.46 627.11 279.15 633.00 279.24 L 633.02 278.02 C 631.33 278.00 629.65 277.99 627.97 277.98 C 622.65 264.40 617.71 250.66 612.09 237.21 L 610.85 237.15 C 605.10 250.58 600.33 264.46 594.95 278.07 C 591.60 277.60 588.24 277.81 584.98 278.03 C 580.67 273.33 584.32 265.59 580.23 260.68 C 578.06 258.51 574.99 257.72 572.20 256.69 C 576.37 256.40 580.50 253.35 581.09 249.05 C 582.14 243.70 577.32 238.75 572.18 238.28 C 564.84 237.52 557.46 238.62 550.11 238.21 M 0.61 294.22 C 12.58 294.55 24.58 294.61 36.55 294.25 C 47.49 294.58 58.52 294.62 69.47 294.26 C 90.16 294.58 110.88 294.62 131.57 294.32 C 136.37 294.67 141.20 294.35 146.01 294.46 C 193.51 294.46 241.02 294.67 288.52 294.35 C 318.99 294.70 349.50 294.40 379.99 294.44 C 409.98 294.45 439.99 294.64 469.98 294.30 C 471.96 294.53 473.96 294.53 475.96 294.52 C 502.47 294.33 528.99 294.68 555.49 294.30 C 560.96 294.76 566.47 294.31 571.96 294.47 C 592.07 294.33 612.19 294.68 632.29 294.26 C 632.18 291.84 629.44 292.82 627.96 292.52 C 603.48 292.70 579.00 292.29 554.53 292.70 C 526.38 292.37 498.20 292.55 470.04 292.58 C 440.03 292.60 410.00 292.31 380.00 292.68 C 378.01 292.48 376.01 292.50 374.02 292.51 C 345.18 292.66 316.33 292.27 287.49 292.66 C 282.35 292.29 277.18 292.63 272.03 292.51 C 224.86 292.57 177.68 292.31 130.52 292.68 C 125.39 292.19 120.21 292.64 115.06 292.51 C 100.24 292.67 85.39 292.27 70.59 292.74 C 58.89 292.38 47.16 292.44 35.47 292.76 C 25.34 292.22 15.14 292.76 4.99 292.52 C 3.46 292.70 1.06 292.07 0.61 294.22 M 2.31 319.79 C 1.48 325.03 2.04 331.08 5.84 335.12 C 8.00 337.86 11.82 336.98 14.87 337.11 C 17.69 337.07 19.26 334.25 20.28 331.98 C 17.28 330.65 16.58 334.73 14.00 335.19 C 11.49 336.15 8.58 334.77 7.16 332.61 C 4.38 328.55 4.22 323.18 5.35 318.53 C 6.24 315.10 9.12 311.39 13.07 311.98 C 16.08 311.85 17.14 316.31 20.28 315.03 C 18.88 310.95 14.15 308.61 10.05 309.83 C 5.53 310.87 2.97 315.51 2.31 319.79 M 29.43 310.50 C 23.51 313.92 22.89 321.89 23.83 327.98 C 24.56 332.10 27.21 337.55 32.15 337.07 C 34.89 337.05 38.22 337.53 40.09 335.03 C 44.62 329.35 44.70 320.89 41.60 314.53 C 39.47 310.18 33.74 308.17 29.43 310.50 M 48.40 310.12 C 48.57 319.02 48.55 327.92 48.41 336.81 C 49.12 336.90 50.54 337.08 51.24 337.16 C 51.23 330.04 51.30 322.92 51.20 315.79 C 55.12 322.26 58.50 329.04 62.23 335.62 C 62.67 337.35 64.39 337.02 65.78 337.11 C 65.75 328.11 65.71 319.10 65.81 310.10 C 65.11 310.06 63.70 309.99 63.00 309.96 C 62.82 317.00 63.40 324.08 62.66 331.09 C 58.91 324.01 55.15 316.89 51.00 310.05 C 50.35 310.07 49.05 310.11 48.40 310.12 M 76.01 310.97 C 71.80 313.77 70.51 319.22 70.70 323.99 C 70.61 328.70 72.08 334.05 76.35 336.64 C 80.66 337.45 85.97 338.03 89.03 334.16 C 88.98 330.69 89.00 327.23 89.00 323.77 C 85.82 323.78 82.64 323.63 79.46 323.82 C 78.06 327.73 84.37 325.38 86.48 325.99 C 86.09 328.82 87.83 332.92 84.61 334.53 C 81.32 336.70 76.90 335.08 75.16 331.74 C 72.58 326.72 72.58 320.32 75.33 315.37 C 76.94 312.36 81.20 310.84 84.14 312.83 C 85.67 313.72 86.93 316.39 88.84 314.61 C 87.07 309.63 80.19 308.10 76.01 310.97 M 94.21 310.05 C 94.34 319.01 94.13 327.97 94.30 336.93 C 94.87 336.98 96.02 337.09 96.60 337.15 C 96.95 333.51 96.77 329.85 96.59 326.21 C 98.01 326.10 99.43 326.02 100.85 325.95 C 102.55 329.13 104.16 332.35 105.77 335.59 C 106.23 337.30 108.11 337.12 109.51 337.28 C 107.84 333.42 105.70 329.78 103.75 326.07 C 109.87 324.35 111.19 315.48 106.62 311.52 C 103.02 308.97 98.31 310.30 94.21 310.05 M 114.38 310.14 C 114.59 319.04 114.55 327.94 114.40 336.84 C 118.79 337.93 123.37 337.55 127.80 336.99 C 127.90 336.50 128.09 335.51 128.18 335.01 C 124.45 335.00 120.73 334.99 117.00 335.00 C 117.00 331.51 117.00 328.01 116.99 324.52 C 120.56 324.50 124.13 324.47 127.70 324.53 C 127.72 323.96 127.76 322.82 127.77 322.25 C 124.18 322.25 120.59 322.23 117.00 322.24 C 116.99 318.89 116.99 315.55 117.05 312.21 C 120.69 312.27 124.34 312.25 127.98 312.24 C 127.99 311.68 128.01 310.56 128.02 310.00 C 123.47 310.03 118.92 309.88 114.38 310.14 M 136.16 310.26 C 131.65 311.88 130.77 318.59 134.31 321.60 C 136.95 323.80 140.48 324.63 143.07 326.92 C 145.78 329.31 144.67 334.58 140.95 335.22 C 137.92 336.34 135.13 334.26 132.79 332.61 C 129.59 334.06 133.22 336.63 135.11 336.97 C 137.99 337.12 140.91 337.17 143.77 336.78 C 147.90 334.49 148.40 328.06 144.99 324.93 C 142.25 322.20 138.00 321.59 135.50 318.60 C 133.48 316.07 135.79 312.13 138.84 312.01 C 141.45 311.42 143.49 313.37 145.85 313.99 C 147.88 312.63 145.61 311.26 144.45 310.69 C 141.90 309.40 138.81 309.10 136.16 310.26 M 156.56 310.68 C 152.16 313.43 150.89 319.11 150.96 323.97 C 150.94 328.80 152.46 334.51 157.07 336.89 C 160.65 336.93 165.32 338.15 167.78 334.74 C 172.17 328.99 172.15 320.44 168.88 314.18 C 166.64 309.86 160.75 308.21 156.56 310.68 M 185.00 310.01 C 185.00 319.07 184.99 328.13 185.00 337.19 C 188.70 337.42 192.59 337.84 196.13 336.45 C 200.50 334.52 202.44 329.49 202.53 324.99 C 202.77 320.37 201.89 315.11 198.06 312.07 C 194.39 309.04 189.35 310.21 185.00 310.01 M 207.42 310.11 C 207.55 319.04 207.55 327.97 207.42 336.90 C 211.95 337.66 216.62 337.73 221.16 337.00 C 221.15 336.52 221.14 335.55 221.14 335.07 C 217.49 334.89 213.84 335.06 210.20 334.94 C 210.25 331.44 210.25 327.94 210.29 324.45 C 213.89 324.54 217.50 324.51 221.10 324.46 C 221.05 323.89 220.94 322.76 220.88 322.19 C 217.32 322.28 213.75 322.31 210.19 322.12 C 210.27 318.82 210.26 315.53 210.26 312.24 C 213.85 312.21 217.46 312.38 221.05 312.16 C 221.14 311.62 221.32 310.54 221.40 310.00 C 216.74 310.03 212.08 309.90 207.42 310.11 M 226.02 309.80 C 225.97 318.90 226.02 328.01 225.99 337.11 C 230.15 337.39 234.34 337.72 238.49 337.09 C 238.50 336.58 238.53 335.57 238.55 335.06 C 235.21 334.89 231.87 335.02 228.54 335.03 C 228.40 326.84 228.61 318.63 228.46 310.44 C 227.85 310.28 226.63 309.96 226.02 309.80 M 251.35 310.16 C 251.63 319.05 251.54 327.95 251.39 336.85 C 255.88 337.65 260.56 337.72 265.06 337.07 C 265.07 336.57 265.08 335.58 265.09 335.08 C 261.46 334.88 257.82 335.07 254.20 334.93 C 254.25 331.44 254.25 327.95 254.29 324.46 C 257.96 324.53 261.63 324.54 265.30 324.42 C 265.15 323.88 264.85 322.80 264.70 322.26 C 261.20 322.16 257.70 322.33 254.20 322.16 C 254.27 318.86 254.26 315.55 254.25 312.25 C 257.89 312.22 261.53 312.37 265.18 312.16 C 265.18 311.64 265.18 310.59 265.19 310.07 C 260.58 309.91 255.95 309.92 251.35 310.16 M 269.46 317.88 C 270.53 323.82 278.04 323.65 281.11 327.95 C 282.87 330.64 281.22 334.90 277.91 335.31 C 274.87 336.16 272.09 334.24 269.84 332.45 C 269.53 332.89 268.92 333.78 268.61 334.22 C 271.09 338.43 276.81 337.11 280.86 336.83 C 285.20 334.68 285.60 327.92 282.08 324.84 C 279.29 322.20 275.12 321.50 272.65 318.50 C 270.53 315.59 273.64 311.54 276.95 311.95 C 279.19 311.73 280.85 313.52 282.91 314.02 C 285.20 312.04 281.65 310.51 280.05 310.01 C 275.00 307.90 267.97 311.96 269.46 317.88 M 287.01 310.00 C 287.00 310.56 286.99 311.68 286.98 312.24 C 289.23 312.24 291.48 312.24 293.73 312.24 C 293.78 320.55 293.73 328.87 293.76 337.18 C 294.36 337.10 295.56 336.95 296.16 336.87 C 296.39 328.67 296.19 320.47 296.24 312.27 C 298.50 312.24 300.76 312.24 303.02 312.23 C 303.01 311.67 303.00 310.56 302.99 310.00 C 297.66 310.00 292.34 310.00 287.01 310.00 M 310.44 310.14 C 308.04 319.32 304.70 328.24 302.41 337.45 C 306.45 337.83 306.02 333.19 306.98 330.58 C 310.36 330.45 313.74 330.48 317.13 330.53 C 318.19 333.15 317.78 337.68 321.72 337.45 C 319.52 328.20 316.14 319.26 313.71 310.06 C 312.61 310.07 311.52 310.10 310.44 310.14 M 325.20 310.06 C 325.28 319.03 325.27 328.01 325.20 336.99 C 329.12 337.36 333.43 338.13 337.05 336.11 C 340.93 333.91 342.53 329.26 342.74 325.03 C 342.99 320.34 342.00 314.94 338.02 311.94 C 334.39 309.08 329.46 310.18 325.20 310.06 M 353.26 310.28 C 347.91 312.87 346.62 319.55 346.86 324.93 C 347.12 329.43 348.58 334.89 353.06 336.89 C 356.39 337.03 360.66 338.16 363.17 335.26 C 366.53 331.78 367.26 326.63 366.99 322.00 C 366.76 317.87 365.35 313.45 361.85 310.96 C 359.32 309.33 356.01 309.10 353.26 310.28 M 381.00 310.00 C 380.99 319.06 381.01 328.13 380.99 337.19 C 384.67 337.49 388.54 337.77 392.07 336.44 C 396.15 334.67 398.04 330.08 398.40 325.91 C 398.91 320.81 397.84 314.81 393.38 311.67 C 389.77 309.16 385.11 310.20 381.00 310.00 M 403.40 310.14 C 403.56 319.04 403.55 327.94 403.41 336.84 C 407.87 337.93 412.54 337.70 417.04 337.00 C 417.14 336.50 417.33 335.50 417.42 335.00 C 413.61 335.01 409.80 334.99 406.00 335.00 C 406.00 331.50 406.00 328.01 406.00 324.52 C 409.56 324.50 413.12 324.47 416.69 324.54 C 416.71 323.97 416.77 322.83 416.80 322.26 C 413.20 322.26 409.60 322.23 406.00 322.24 C 405.98 318.89 405.99 315.54 406.06 312.20 C 409.70 312.22 413.36 312.40 417.01 312.15 C 417.12 311.61 417.33 310.55 417.44 310.01 C 412.76 310.03 408.08 309.88 403.40 310.14 M 433.58 312.56 C 430.29 316.57 429.62 322.14 430.32 327.14 C 430.79 330.95 432.68 334.84 436.10 336.82 C 439.23 337.16 442.62 337.45 445.64 336.46 C 450.53 334.17 447.84 327.95 448.48 323.75 C 445.18 323.75 441.89 323.75 438.61 323.75 C 438.69 324.30 438.86 325.38 438.94 325.93 C 441.29 326.08 443.65 326.00 446.01 325.99 C 445.98 328.36 445.98 330.72 446.02 333.09 C 443.58 335.38 439.61 336.56 436.77 334.26 C 432.75 330.75 432.22 324.72 433.16 319.78 C 433.79 316.26 435.99 312.27 439.97 311.97 C 442.51 311.57 444.44 313.43 446.19 314.95 C 447.58 316.72 448.65 313.43 447.35 312.70 C 443.99 308.53 437.03 308.53 433.58 312.56 M 453.76 309.98 C 454.07 317.58 453.04 325.34 454.32 332.85 C 455.84 338.47 462.36 337.18 466.74 336.77 C 469.46 335.21 470.52 331.96 470.48 328.98 C 470.54 322.65 470.49 316.31 470.48 309.98 C 469.86 309.98 468.62 310.00 468.00 310.01 C 467.99 315.68 468.01 321.36 468.01 327.03 C 467.94 329.03 467.99 331.20 466.93 332.98 C 465.00 336.52 459.00 336.35 457.15 332.81 C 456.16 331.04 456.29 328.93 456.23 326.98 C 456.25 321.32 456.25 315.67 456.25 310.02 C 455.63 310.01 454.38 309.99 453.76 309.98 M 481.45 310.10 C 478.98 319.29 475.65 328.24 473.40 337.48 C 477.44 337.76 477.00 333.19 477.99 330.54 C 481.37 330.48 484.76 330.45 488.15 330.58 C 489.16 333.18 488.79 337.72 492.71 337.41 C 490.48 328.20 487.10 319.31 484.73 310.13 C 483.63 310.11 482.54 310.10 481.45 310.10 M 496.20 310.04 C 496.27 319.01 496.29 327.98 496.19 336.95 C 496.84 336.96 498.13 337.00 498.77 337.01 C 498.82 330.17 498.57 323.33 498.92 316.50 C 503.28 322.86 506.34 330.03 510.36 336.61 C 511.08 336.81 512.51 337.20 513.23 337.40 C 513.27 328.27 513.25 319.13 513.24 310.00 C 512.56 310.00 511.20 309.99 510.52 309.98 C 510.46 317.02 510.54 324.06 510.48 331.10 C 506.41 324.19 502.56 317.14 498.81 310.06 C 498.16 310.05 496.85 310.05 496.20 310.04 M 524.52 310.22 C 522.19 319.38 518.81 328.23 516.55 337.41 C 520.61 337.79 520.11 333.21 521.10 330.59 C 524.47 330.45 527.84 330.50 531.22 330.49 C 532.36 332.94 531.92 338.33 536.00 337.15 C 533.31 328.08 530.39 319.08 527.78 309.98 C 526.68 310.05 525.60 310.13 524.52 310.22 M 547.00 309.88 C 546.97 316.61 547.04 323.34 546.99 330.08 C 547.13 332.22 546.19 334.72 543.89 335.28 C 541.68 336.19 539.81 334.37 538.05 333.38 C 535.88 333.97 537.40 336.95 539.09 336.89 C 541.62 337.14 544.20 337.23 546.72 336.83 C 548.99 335.35 549.63 332.54 549.51 330.00 C 549.43 323.37 549.65 316.74 549.40 310.12 C 548.80 310.06 547.60 309.94 547.00 309.88 M 555.62 310.10 C 555.30 315.40 555.61 320.72 555.48 326.03 C 555.46 329.23 555.19 332.92 557.57 335.45 C 559.56 337.89 563.08 336.92 565.83 337.08 C 569.80 337.63 572.12 333.37 572.15 329.94 C 572.40 323.30 572.18 316.64 572.24 309.99 C 571.62 309.99 570.37 310.00 569.75 310.00 C 569.73 315.68 569.77 321.36 569.76 327.03 C 569.70 329.57 569.68 332.59 567.50 334.34 C 564.32 336.95 558.69 335.16 558.21 330.89 C 557.71 323.91 558.14 316.88 558.00 309.89 C 557.40 309.94 556.21 310.05 555.62 310.10 M 583.19 310.00 C 580.63 319.07 577.73 328.05 575.00 337.08 C 575.73 337.08 577.20 337.09 577.93 337.10 C 578.49 334.90 579.11 332.71 579.76 330.54 C 583.14 330.48 586.53 330.44 589.92 330.59 C 590.84 333.24 590.46 337.85 594.51 337.46 C 591.96 328.28 589.18 319.14 586.17 310.12 C 585.42 310.09 583.94 310.03 583.19 310.00 M 594.01 310.00 C 594.00 310.56 593.99 311.67 593.99 312.23 C 596.24 312.24 598.50 312.24 600.76 312.27 C 600.74 320.54 600.74 328.81 600.76 337.09 C 601.38 337.10 602.61 337.12 603.23 337.13 C 603.27 328.84 603.24 320.55 603.25 312.26 C 605.50 312.25 607.75 312.24 610.01 312.24 C 610.00 311.68 610.00 310.56 610.00 310.00 C 604.67 310.00 599.34 310.00 594.01 310.00 M 618.34 310.43 C 613.46 312.89 612.04 318.98 612.20 324.01 C 612.19 328.74 613.56 334.36 618.02 336.79 C 621.57 337.01 626.36 338.24 628.84 334.88 C 631.72 331.68 632.41 327.15 632.29 323.00 C 632.24 319.24 631.33 315.24 628.76 312.38 C 626.24 309.48 621.74 308.72 618.34 310.43 Z" />
<path fill="#ffffff" opacity="1.00" d=" M 562.24 239.19 C 566.09 238.85 571.37 238.50 573.51 242.51 C 574.98 246.06 575.06 250.50 573.26 253.95 C 570.73 257.41 565.97 256.64 562.25 256.77 C 562.25 250.91 562.25 245.05 562.24 239.19 Z" />
<path fill="#ffffff" opacity="1.00" d=" M 444.42 245.58 C 446.95 250.70 448.79 256.14 450.70 261.52 C 446.63 261.50 442.56 261.50 438.50 261.48 C 440.38 256.14 442.59 250.93 444.42 245.58 Z" />
<path fill="#ffffff" opacity="1.00" d=" M 608.34 246.07 C 609.66 246.81 609.94 248.39 610.52 249.66 C 611.94 253.64 613.64 257.52 614.89 261.56 C 610.83 261.48 606.76 261.53 602.70 261.43 C 604.49 256.28 606.74 251.29 608.34 246.07 Z" />
<path fill="#ffffff" opacity="1.00" d=" M 31.98 312.13 C 34.94 311.30 38.07 313.09 39.29 315.81 C 41.67 320.78 41.63 326.98 39.08 331.88 C 37.61 334.99 33.34 336.67 30.38 334.53 C 26.52 331.72 26.00 326.38 26.25 321.98 C 26.45 318.13 27.95 313.44 31.98 312.13 Z" />
<path fill="#ffffff" opacity="1.00" d=" M 159.13 312.22 C 161.75 311.38 164.83 312.49 166.22 314.88 C 168.82 319.21 169.04 324.67 167.64 329.44 C 166.84 331.79 165.43 334.32 162.91 335.14 C 160.25 336.31 157.11 334.68 155.74 332.30 C 153.46 328.64 153.45 324.10 153.96 319.97 C 154.49 316.87 155.98 313.41 159.13 312.22 Z" />
<path fill="#ffffff" opacity="1.00" d=" M 187.38 312.43 C 190.56 312.12 194.33 311.80 196.75 314.32 C 201.20 319.46 201.14 328.38 196.45 333.36 C 194.00 335.56 190.51 334.90 187.51 335.04 C 187.42 327.50 187.64 319.96 187.38 312.43 Z" />
<path fill="#ffffff" opacity="1.00" d=" M 327.84 312.15 C 331.55 312.07 336.22 312.12 338.20 315.93 C 340.87 320.92 340.90 327.83 337.44 332.46 C 335.18 335.52 331.11 335.01 327.77 335.03 C 327.78 327.41 327.66 319.78 327.84 312.15 Z" />
<path fill="#ffffff" opacity="1.00" d=" M 355.10 312.23 C 357.20 311.56 359.68 312.04 361.16 313.74 C 364.45 317.24 364.56 322.49 364.09 327.00 C 363.64 330.19 362.13 333.84 358.92 335.09 C 355.97 336.44 352.60 334.36 351.28 331.69 C 349.16 327.48 349.06 322.46 350.31 317.98 C 351.03 315.54 352.56 313.06 355.10 312.23 Z" />
<path fill="#ffffff" opacity="1.00" d=" M 383.64 312.10 C 387.14 312.20 391.53 312.01 393.61 315.45 C 396.62 320.45 396.70 327.50 393.29 332.32 C 391.04 335.46 386.91 335.06 383.52 335.04 C 383.56 327.39 383.33 319.74 383.64 312.10 Z" />
<path fill="#ffffff" opacity="1.00" d=" M 620.10 312.32 C 623.69 310.79 627.36 313.59 628.48 316.95 C 630.28 321.92 630.21 327.88 627.42 332.47 C 625.72 335.43 621.45 336.51 618.72 334.31 C 615.51 331.60 614.82 327.07 614.79 323.11 C 615.00 319.10 616.04 314.14 620.10 312.32 Z" />
<path fill="#ffffff" opacity="1.00" d=" M 96.74 312.27 C 99.13 312.32 101.62 311.93 103.92 312.77 C 107.78 315.00 107.51 322.33 102.96 323.64 C 100.90 323.87 98.82 323.73 96.75 323.73 C 96.75 319.91 96.76 316.09 96.74 312.27 Z" />
<path fill="#ffffff" opacity="1.00" d=" M 307.74 328.22 C 309.23 323.46 310.13 318.45 312.35 313.96 C 313.65 318.74 315.18 323.46 316.46 328.25 C 313.55 328.25 310.64 328.24 307.74 328.22 Z" />
<path fill="#ffffff" opacity="1.00" d=" M 482.84 313.92 C 485.10 318.39 485.85 323.50 487.48 328.24 C 484.55 328.25 481.62 328.25 478.70 328.22 C 480.01 323.43 481.53 318.71 482.84 313.92 Z" />
<path fill="#ffffff" opacity="1.00" d=" M 521.82 328.21 C 523.35 323.39 524.40 318.38 526.45 313.74 C 527.74 318.52 529.13 323.28 530.66 328.00 C 527.72 328.32 524.76 328.29 521.82 328.21 Z" />
<path fill="#ffffff" opacity="1.00" d=" M 584.57 313.84 C 586.71 318.40 587.64 323.42 589.17 328.21 C 586.21 328.30 583.25 328.26 580.30 328.10 C 581.90 323.40 583.24 318.62 584.57 313.84 Z" />
</g>
<g id="#905f25ff">
<path fill="#905f25" opacity="1.00" d=" M 338.35 0.74 C 348.00 14.20 356.84 28.24 366.14 41.95 C 368.92 46.33 372.15 50.44 374.56 55.05 C 362.62 64.95 350.89 75.09 338.96 84.99 C 334.34 88.86 330.02 93.11 324.99 96.46 C 321.03 91.24 316.99 86.07 313.10 80.80 C 315.96 73.83 317.81 66.49 320.11 59.32 C 322.51 51.75 325.12 44.25 327.28 36.61 C 330.93 24.93 335.19 13.40 338.17 1.53 L 338.35 0.74 Z" />
<path fill="#905f25" opacity="1.00" d=" M 224.80 131.55 C 226.82 129.28 228.81 126.99 230.79 124.68 C 236.72 128.63 241.48 134.00 246.38 139.11 C 231.46 152.29 216.39 165.28 201.46 178.44 C 200.20 179.57 198.77 180.56 197.06 180.83 C 190.29 182.36 183.59 184.19 176.91 186.08 C 185.57 175.67 194.55 165.49 203.60 155.41 C 206.58 152.70 209.13 149.58 211.72 146.51 C 216.03 141.48 220.49 136.58 224.80 131.55 Z" />
</g>
<g id="#e0b758ff">
<path fill="#e0b758" opacity="1.00" d=" M 334.73 4.80 C 335.76 3.59 336.93 2.53 338.17 1.53 C 335.19 13.40 330.93 24.93 327.28 36.61 C 323.43 33.28 320.32 29.12 315.99 26.36 C 322.14 19.10 328.53 12.03 334.73 4.80 Z" />
</g>
<g id="#d5ab51ff">
<path fill="#d5ab51" opacity="1.00" d=" M 302.04 42.37 C 306.62 36.98 311.27 31.64 315.99 26.36 C 320.32 29.12 323.43 33.28 327.28 36.61 C 325.12 44.25 322.51 51.75 320.11 59.32 C 313.72 54.05 308.81 47.18 302.04 42.37 Z" />
</g>
<g id="#c99d49ff">
<path fill="#c99d49" opacity="1.00" d=" M 283.73 63.35 C 289.74 56.28 295.89 49.32 302.04 42.37 C 308.81 47.18 313.72 54.05 320.11 59.32 C 317.81 66.49 315.96 73.83 313.10 80.80 C 311.43 82.75 309.27 84.16 307.40 85.88 C 304.54 81.07 300.22 77.31 295.35 74.63 C 291.15 71.24 287.78 66.93 283.73 63.35 Z" />
</g>
<g id="#99682aff">
<path fill="#99682a" opacity="1.00" d=" M 374.56 55.05 L 374.88 54.79 C 377.85 59.99 381.79 64.58 384.54 69.91 C 368.21 83.37 352.13 97.17 336.00 110.88 C 332.30 106.10 328.63 101.29 324.99 96.46 C 330.02 93.11 334.34 88.86 338.96 84.99 C 350.89 75.09 362.62 64.95 374.56 55.05 Z" />
<path fill="#99682a" opacity="1.00" d=" M 170.38 228.89 C 171.33 227.12 173.35 227.72 174.95 227.66 C 178.73 227.92 182.53 227.46 186.29 227.79 C 186.56 228.02 187.10 228.48 187.37 228.71 C 184.99 228.99 182.59 229.06 180.20 229.14 C 175.25 242.20 170.28 255.27 164.96 268.18 L 164.95 266.61 C 165.02 263.94 166.48 261.57 167.30 259.09 C 170.99 249.03 175.03 239.11 178.53 229.00 C 175.82 229.01 173.10 229.05 170.38 228.89 Z" />
</g>
<g id="#bc8f41ff">
<path fill="#bc8f41" opacity="1.00" d=" M 267.01 82.43 C 272.59 76.07 278.10 69.66 283.73 63.35 C 287.78 66.93 291.15 71.24 295.35 74.63 C 300.22 77.31 304.54 81.07 307.40 85.88 C 301.07 91.23 295.01 96.88 288.64 102.17 C 281.88 95.12 274.75 88.39 267.01 82.43 Z" />
</g>
<g id="#a57632ff">
<path fill="#a57632" opacity="1.00" d=" M 384.54 69.91 L 384.90 69.66 C 388.60 76.02 393.19 81.83 396.81 88.24 C 397.60 89.66 398.39 91.08 399.27 92.45 C 388.22 102.36 376.57 111.58 365.40 121.36 C 360.88 124.69 357.04 128.82 352.49 132.11 L 352.10 132.39 C 347.11 124.95 341.19 118.18 336.00 110.88 C 352.13 97.17 368.21 83.37 384.54 69.91 Z" />
<path fill="#a57632" opacity="1.00" d=" M 10.01 237.13 C 12.50 237.11 14.99 237.09 17.48 237.09 C 17.53 242.02 17.48 246.96 17.45 251.90 C 14.98 251.91 12.50 251.92 10.03 251.92 C 10.05 246.99 9.95 242.06 10.01 237.13 Z" />
<path fill="#a57632" opacity="1.00" d=" M 115.26 237.10 C 117.84 237.10 120.41 237.11 122.99 237.14 C 123.05 242.04 122.96 246.95 122.97 251.86 C 120.42 251.90 117.87 251.93 115.32 251.95 C 115.30 247.00 115.25 242.05 115.26 237.10 Z" />
</g>
<g id="#b1843aff">
<path fill="#b1843a" opacity="1.00" d=" M 264.30 85.70 C 265.17 84.58 266.09 83.50 267.01 82.43 C 274.75 88.39 281.88 95.12 288.64 102.17 C 284.69 105.85 280.53 109.30 276.49 112.87 C 273.48 108.18 268.95 104.84 265.27 100.73 C 262.98 98.14 260.27 95.93 257.09 94.51 C 259.64 91.70 262.01 88.73 264.30 85.70 Z" />
</g>
<g id="#ecc45fff">
<path fill="#ecc45f" opacity="1.00" d=" M 210.02 92.54 C 225.54 89.46 241.28 87.64 257.01 85.96 C 259.43 85.68 261.87 85.60 264.30 85.70 C 262.01 88.73 259.64 91.70 257.09 94.51 C 253.09 99.14 248.96 103.67 245.03 108.37 C 240.34 113.85 235.35 119.08 230.79 124.68 C 228.81 126.99 226.82 129.28 224.80 131.55 C 221.49 128.36 221.38 123.38 219.62 119.35 C 216.13 110.51 213.65 101.32 210.02 92.54 Z" />
<path fill="#ecc45f" opacity="1.00" d=" M 396.81 88.24 C 412.63 90.13 428.28 93.16 443.90 96.26 L 443.77 96.54 C 437.99 109.54 434.61 123.49 428.71 136.44 C 427.60 134.72 426.42 133.05 425.25 131.37 C 420.07 123.88 415.35 116.07 410.12 108.61 C 406.47 103.24 403.01 97.75 399.27 92.45 C 398.39 91.08 397.60 89.66 396.81 88.24 Z" />
</g>
<g id="#e1b858ff">
<path fill="#e1b858" opacity="1.00" d=" M 193.69 95.74 C 199.08 94.42 204.55 93.46 210.02 92.54 C 213.65 101.32 216.13 110.51 219.62 119.35 C 221.38 123.38 221.49 128.36 224.80 131.55 C 220.49 136.58 216.03 141.48 211.72 146.51 C 207.77 139.45 205.79 131.50 203.14 123.89 C 200.05 114.49 196.08 105.36 193.69 95.74 Z" />
</g>
<g id="#b2853bff">
<path fill="#b2853b" opacity="1.00" d=" M 365.40 121.36 C 376.57 111.58 388.22 102.36 399.27 92.45 C 403.01 97.75 406.47 103.24 410.12 108.61 C 397.93 119.63 385.01 129.82 372.64 140.65 C 369.92 143.17 366.98 145.44 363.97 147.62 C 360.20 142.41 355.77 137.65 352.49 132.11 C 357.04 128.82 360.88 124.69 365.40 121.36 Z" />
</g>
<g id="#a97a35ff">
<path fill="#a97a35" opacity="1.00" d=" M 245.03 108.37 C 248.96 103.67 253.09 99.14 257.09 94.51 C 260.27 95.93 262.98 98.14 265.27 100.73 C 268.95 104.84 273.48 108.18 276.49 112.87 C 271.82 116.87 267.26 120.99 262.59 125.00 C 260.30 120.52 255.48 118.42 252.26 114.76 C 250.10 112.36 247.69 110.20 245.03 108.37 Z" />
</g>
<g id="#dab053ff">
<path fill="#dab053" opacity="1.00" d=" M 177.01 99.52 C 182.48 97.90 188.13 96.97 193.69 95.74 C 196.08 105.36 200.05 114.49 203.14 123.89 C 205.79 131.50 207.77 139.45 211.72 146.51 C 209.13 149.58 206.58 152.70 203.60 155.41 C 201.40 155.65 199.26 156.24 197.25 157.14 C 193.60 148.37 191.23 139.14 187.63 130.35 C 184.45 119.94 180.22 109.91 177.01 99.52 Z" />
</g>
<g id="#e0b757ff">
<path fill="#e0b757" opacity="1.00" d=" M 428.71 136.44 C 434.61 123.49 437.99 109.54 443.77 96.54 C 452.29 98.06 460.74 100.11 469.04 102.57 C 463.43 118.70 457.67 134.78 451.88 150.85 C 450.71 154.40 449.81 158.13 447.57 161.21 C 447.20 161.32 446.45 161.54 446.07 161.64 C 451.80 170.29 457.94 178.72 463.09 187.73 C 449.22 183.20 434.93 180.18 420.71 177.02 C 424.03 172.90 428.36 169.81 432.42 166.49 C 435.66 163.87 438.54 160.81 442.07 158.55 C 441.51 156.72 440.87 154.90 439.76 153.32 C 436.03 147.73 432.18 142.21 428.71 136.44 Z" />
</g>
<g id="#d2a74eff">
<path fill="#d2a74e" opacity="1.00" d=" M 159.12 104.04 C 165.08 102.50 171.00 100.84 177.01 99.52 C 180.22 109.91 184.45 119.94 187.63 130.35 C 191.23 139.14 193.60 148.37 197.25 157.14 C 191.90 159.45 186.51 161.64 181.20 164.04 C 177.52 155.61 175.37 146.62 171.92 138.11 C 169.40 130.96 167.15 123.72 164.35 116.67 C 162.62 112.63 162.41 107.81 159.43 104.40 L 159.12 104.04 Z" />
</g>
<g id="#d3a94fff">
<path fill="#d3a94f" opacity="1.00" d=" M 469.04 102.57 C 475.91 104.21 482.64 106.39 489.44 108.31 L 488.97 109.26 C 485.67 115.66 484.28 122.81 481.47 129.41 C 476.72 143.31 471.33 156.99 466.86 170.99 C 460.53 167.54 453.82 164.78 447.57 161.21 C 449.81 158.13 450.71 154.40 451.88 150.85 C 457.67 134.78 463.43 118.70 469.04 102.57 Z" />
</g>
<g id="#c89c48ff">
<path fill="#c89c48" opacity="1.00" d=" M 137.80 110.76 C 144.93 108.40 152.06 105.79 159.43 104.40 C 162.41 107.81 162.62 112.63 164.35 116.67 C 167.15 123.72 169.40 130.96 171.92 138.11 C 175.37 146.62 177.52 155.61 181.20 164.04 C 174.04 167.47 167.02 171.20 160.10 175.11 C 156.62 163.18 151.80 151.71 148.16 139.84 C 144.36 130.27 141.58 120.34 137.80 110.76 Z" />
</g>
<g id="#9e6f2eff">
<path fill="#9e6f2e" opacity="1.00" d=" M 230.79 124.68 C 235.35 119.08 240.34 113.85 245.03 108.37 C 247.69 110.20 250.10 112.36 252.26 114.76 C 255.48 118.42 260.30 120.52 262.59 125.00 C 257.17 129.69 251.84 134.47 246.38 139.11 C 241.48 134.00 236.72 128.63 230.79 124.68 Z" />
</g>
<g id="#bf9343ff">
<path fill="#bf9343" opacity="1.00" d=" M 372.64 140.65 C 385.01 129.82 397.93 119.63 410.12 108.61 C 415.35 116.07 420.07 123.88 425.25 131.37 C 410.17 143.50 395.75 156.46 380.72 168.68 L 380.14 169.16 C 374.99 161.81 369.25 154.88 363.97 147.62 C 366.98 145.44 369.92 143.17 372.64 140.65 Z" />
<path fill="#bf9343" opacity="1.00" d=" M 505.35 113.83 C 510.25 115.46 515.04 117.42 519.92 119.08 L 519.81 119.39 C 513.77 135.62 508.16 152.01 502.30 168.32 C 499.61 174.99 497.94 182.05 494.62 188.47 C 490.39 185.57 486.16 182.66 481.88 179.84 C 484.49 171.33 487.86 163.09 490.63 154.65 C 495.65 141.08 500.08 127.31 505.35 113.83 Z" />
</g>
<g id="#c89d49ff">
<path fill="#c89d49" opacity="1.00" d=" M 488.97 109.26 L 489.64 108.29 C 494.77 110.44 500.19 111.77 505.35 113.83 C 500.08 127.31 495.65 141.08 490.63 154.65 C 487.86 163.09 484.49 171.33 481.88 179.84 C 476.90 176.84 471.93 173.83 466.86 170.99 C 471.33 156.99 476.72 143.31 481.47 129.41 C 484.28 122.81 485.67 115.66 488.97 109.26 Z" />
</g>
<g id="#be9242ff">
<path fill="#be9242" opacity="1.00" d=" M 121.48 116.91 C 126.56 114.03 132.33 112.67 137.80 110.76 C 141.58 120.34 144.36 130.27 148.16 139.84 C 151.80 151.71 156.62 163.18 160.10 175.11 C 155.03 178.03 150.36 181.63 145.13 184.26 C 142.49 175.06 138.89 166.19 135.85 157.13 C 133.87 150.34 130.95 143.87 128.82 137.14 C 126.72 130.28 124.15 123.56 121.48 116.91 Z" />
</g>
<g id="#b5873cff">
<path fill="#b5873c" opacity="1.00" d=" M 99.23 125.50 C 106.46 122.18 113.97 119.54 121.26 116.38 L 121.48 116.91 C 124.15 123.56 126.72 130.28 128.82 137.14 C 130.95 143.87 133.87 150.34 135.85 157.13 C 138.89 166.19 142.49 175.06 145.13 184.26 L 145.29 184.82 C 138.40 188.95 132.31 194.23 126.06 199.24 C 124.25 194.29 122.26 189.41 120.58 184.41 C 114.78 166.44 107.92 148.84 102.13 130.86 C 101.52 128.90 100.40 127.17 99.23 125.50 Z" />
</g>
<g id="#b4873cff">
<path fill="#b4873c" opacity="1.00" d=" M 502.30 168.32 C 508.16 152.01 513.77 135.62 519.81 119.39 C 526.36 121.48 532.52 124.60 538.90 127.15 L 538.81 127.38 C 529.69 152.31 520.71 177.30 512.00 202.38 C 506.20 197.76 500.63 192.84 494.62 188.47 C 497.94 182.05 499.61 174.99 502.30 168.32 Z" />
</g>
<g id="#aa7b35ff">
<path fill="#aa7b35" opacity="1.00" d=" M 75.15 137.09 C 83.05 132.98 91.10 129.15 99.23 125.50 C 100.40 127.17 101.52 128.90 102.13 130.86 C 107.92 148.84 114.78 166.44 120.58 184.41 C 122.26 189.41 124.25 194.29 126.06 199.24 C 122.97 202.05 119.76 204.74 116.88 207.77 C 112.49 204.30 108.83 200.03 104.79 196.19 C 99.72 190.97 94.31 186.12 89.24 180.91 L 89.31 180.62 C 89.41 180.19 89.61 179.33 89.71 178.90 C 87.38 170.93 84.61 163.09 81.68 155.32 C 79.47 149.35 77.99 143.12 75.26 137.34 L 75.15 137.09 Z" />
<path fill="#aa7b35" opacity="1.00" d=" M 287.49 292.66 C 316.33 292.27 345.18 292.66 374.02 292.51 C 376.01 292.50 378.01 292.48 380.00 292.68 L 379.99 294.44 C 349.50 294.40 318.99 294.70 288.52 294.35 L 287.49 292.66 Z" />
</g>
<g id="#a97a34ff">
<path fill="#a97a34" opacity="1.00" d=" M 512.00 202.38 C 520.71 177.30 529.69 152.31 538.81 127.38 C 546.05 130.43 553.14 133.88 560.02 137.68 C 556.47 147.04 553.25 156.51 549.80 165.91 C 548.38 170.79 545.93 175.33 545.04 180.37 L 544.91 180.93 C 535.92 189.91 526.85 198.83 517.75 207.69 C 515.53 206.33 513.74 204.30 512.00 202.38 Z" />
</g>
<g id="#cea34cff">
<path fill="#cea34c" opacity="1.00" d=" M 380.72 168.68 C 395.75 156.46 410.17 143.50 425.25 131.37 C 426.42 133.05 427.60 134.72 428.71 136.44 C 432.18 142.21 436.03 147.73 439.76 153.32 C 440.87 154.90 441.51 156.72 442.07 158.55 C 438.54 160.81 435.66 163.87 432.42 166.49 C 428.36 169.81 424.03 172.90 420.71 177.02 C 407.62 174.44 394.36 172.75 381.19 170.71 C 381.07 170.20 380.84 169.19 380.72 168.68 Z" />
</g>
<g id="#9f702fff">
<path fill="#9f702f" opacity="1.00" d=" M 56.05 148.00 C 62.33 144.25 68.57 140.34 75.26 137.34 C 77.99 143.12 79.47 149.35 81.68 155.32 C 84.61 163.09 87.38 170.93 89.71 178.90 C 89.61 179.33 89.41 180.19 89.31 180.62 C 77.98 170.01 67.06 158.93 56.05 148.00 Z" />
</g>
<g id="#9d6d2dff">
<path fill="#9d6d2d" opacity="1.00" d=" M 560.02 137.68 C 566.06 140.92 572.21 144.05 577.88 147.88 C 577.63 149.34 576.14 150.16 575.25 151.23 C 564.95 160.70 555.59 171.18 545.04 180.37 C 545.93 175.33 548.38 170.79 549.80 165.91 C 553.25 156.51 556.47 147.04 560.02 137.68 Z" />
</g>
<g id="#b3853bff">
<path fill="#b3853b" opacity="1.00" d=" M 83.56 227.68 C 88.17 227.59 92.82 227.60 97.44 227.67 C 97.69 227.99 98.19 228.63 98.44 228.95 C 96.01 229.04 93.59 229.02 91.16 229.04 C 87.39 235.81 82.66 242.10 79.27 249.03 C 81.30 253.15 84.35 256.70 86.15 260.96 C 83.32 260.85 80.49 260.95 77.67 261.16 C 76.47 259.32 75.21 257.51 73.94 255.72 C 70.80 260.14 68.23 264.92 65.34 269.50 C 63.66 272.38 61.47 275.00 60.36 278.19 C 62.68 278.20 65.00 278.18 67.32 278.37 C 66.33 279.83 64.47 279.21 63.02 279.31 C 59.56 279.06 56.08 279.47 52.63 279.24 C 52.40 279.01 51.95 278.55 51.72 278.32 C 54.12 278.23 56.52 278.20 58.92 278.06 C 63.18 270.08 68.29 262.56 72.70 254.67 C 72.62 251.57 69.41 249.19 68.55 246.14 C 71.24 246.00 73.94 245.75 76.62 245.39 L 76.65 245.38 C 77.20 245.91 78.48 247.82 79.01 246.08 C 82.43 240.40 85.99 234.81 89.30 229.07 C 86.99 229.04 84.69 229.03 82.39 228.92 C 82.68 228.61 83.27 227.99 83.56 227.68 Z" />
</g>
<g id="#936227ff">
<path fill="#936227" opacity="1.00" d=" M 1.98 227.78 C 8.66 227.69 15.33 227.78 22.00 227.71 C 23.51 227.73 25.22 227.60 26.37 228.80 C 23.36 228.98 20.35 229.05 17.35 229.15 C 17.50 231.79 17.51 234.44 17.48 237.09 C 14.99 237.09 12.50 237.11 10.01 237.13 C 10.02 234.43 10.00 231.72 10.00 229.02 C 7.32 229.00 4.65 229.00 1.98 228.99 L 1.98 227.78 Z" />
<path fill="#936227" opacity="1.00" d=" M 106.67 228.86 C 108.04 227.38 110.13 227.76 111.94 227.71 C 118.30 227.79 124.65 227.69 131.01 227.77 L 131.02 229.00 C 128.35 229.00 125.68 229.00 123.01 229.00 C 122.99 231.71 122.98 234.42 122.99 237.14 C 120.41 237.11 117.84 237.10 115.26 237.10 C 115.24 234.48 115.28 231.87 115.45 229.27 C 112.53 228.96 109.59 228.99 106.67 228.86 Z" />
</g>
<g id="#99692bff">
<path fill="#99692b" opacity="1.00" d=" M 51.36 228.89 C 53.18 226.71 56.55 228.10 59.04 227.72 C 64.09 228.19 69.50 226.72 74.30 228.64 C 71.84 229.01 69.35 229.06 66.86 229.06 C 70.03 234.55 73.63 239.79 76.62 245.39 C 73.94 245.75 71.24 246.00 68.55 246.14 L 68.21 246.16 C 64.87 240.39 61.14 234.86 57.79 229.09 C 55.64 229.05 53.50 229.02 51.36 228.89 Z" />
<path fill="#99692b" opacity="1.00" d=" M 131.72 228.86 C 132.03 228.61 132.64 228.11 132.95 227.86 C 140.16 227.67 147.43 227.57 154.64 227.91 L 155.40 228.94 C 152.60 229.03 149.81 229.01 147.02 229.06 C 148.82 233.89 150.97 238.61 152.38 243.57 C 150.52 245.62 147.45 244.75 145.01 245.07 C 143.00 239.72 140.85 234.42 138.83 229.08 C 136.46 229.02 134.09 229.03 131.72 228.86 Z" />
</g>
<g id="#231f20ff">
<path fill="#231f20" opacity="1.00" d=" M 283.12 256.92 C 283.73 246.43 293.20 236.53 304.02 237.20 C 308.46 236.81 312.74 240.99 316.93 237.97 C 316.99 242.10 317.14 246.25 316.85 250.38 C 315.22 247.76 314.99 244.42 312.77 242.15 C 309.14 237.77 302.44 237.18 297.51 239.47 C 292.63 242.06 290.71 247.80 290.31 252.99 C 289.74 259.73 289.63 266.96 292.72 273.16 C 295.98 279.93 306.57 281.03 311.29 275.29 C 313.86 272.31 313.19 268.13 313.25 264.51 C 310.89 264.50 308.54 264.51 306.19 264.57 C 306.21 264.28 306.23 263.70 306.25 263.41 C 312.04 263.57 317.83 263.50 323.62 263.46 C 323.64 263.73 323.69 264.26 323.72 264.52 C 322.14 264.52 320.56 264.52 318.99 264.51 C 319.02 268.87 318.96 273.23 319.03 277.59 C 314.63 274.77 310.61 279.76 306.14 279.86 C 293.32 282.14 281.75 269.31 283.12 256.92 Z" />
<path fill="#231f20" opacity="1.00" d=" M 353.79 254.10 C 349.75 246.47 356.47 236.55 365.01 237.20 C 369.29 236.26 373.23 240.77 377.26 238.17 C 377.23 241.62 377.25 245.07 377.27 248.53 L 376.24 248.51 C 375.59 242.97 370.96 237.66 365.02 238.22 C 360.08 237.98 354.54 242.84 356.39 248.02 C 358.46 252.26 363.51 253.27 367.61 254.60 C 372.26 256.10 378.05 257.01 380.44 261.88 C 382.85 267.57 380.29 274.85 374.87 277.83 C 369.47 281.03 362.73 280.33 356.98 278.51 C 355.23 277.70 353.47 278.45 351.73 278.78 C 351.70 274.54 351.74 270.31 351.79 266.08 C 353.48 268.34 353.50 271.45 355.24 273.72 C 358.45 278.82 365.47 280.05 370.88 278.22 C 376.32 276.59 378.70 268.57 374.40 264.60 C 368.60 259.19 358.57 261.00 353.79 254.10 Z" />
<path fill="#231f20" opacity="1.00" d=" M 446.34 237.24 C 446.83 237.28 447.82 237.37 448.31 237.41 C 453.25 251.04 458.63 264.51 463.87 278.03 C 465.58 278.01 467.30 278.01 469.02 278.00 L 469.00 279.24 C 463.12 279.14 457.22 279.47 451.36 279.11 L 450.62 278.08 C 452.79 277.99 454.97 277.99 457.16 277.97 C 455.18 272.80 453.26 267.60 451.18 262.47 C 446.74 262.57 442.29 262.38 437.86 262.61 C 436.15 267.81 433.84 272.78 432.19 278.00 C 434.46 277.98 436.76 277.95 439.01 278.40 C 436.89 279.71 434.35 279.18 432.01 279.28 C 429.65 279.17 427.11 279.68 424.97 278.44 C 426.90 278.04 428.89 277.97 430.86 277.88 C 435.95 264.30 441.25 250.81 446.34 237.24 M 444.42 245.58 C 442.59 250.93 440.38 256.14 438.50 261.48 C 442.56 261.50 446.63 261.50 450.70 261.52 C 448.79 256.14 446.95 250.70 444.42 245.58 Z" />
<path fill="#231f20" opacity="1.00" d=" M 199.60 238.30 C 206.16 238.23 212.72 238.14 219.27 238.36 C 217.20 239.75 214.61 239.15 212.27 239.24 C 212.20 252.14 212.32 265.05 212.21 277.95 C 218.14 277.47 225.36 279.79 230.14 275.18 C 232.98 272.72 233.26 268.71 235.40 265.84 C 235.28 270.23 236.11 274.97 235.08 279.16 C 223.30 279.36 211.51 279.21 199.73 279.23 L 199.78 278.00 C 201.93 278.00 204.07 278.00 206.23 278.00 C 206.19 265.07 206.41 252.13 206.11 239.20 C 204.00 238.92 201.21 240.12 199.60 238.30 Z" />
<path fill="#231f20" opacity="1.00" d=" M 239.49 238.31 C 250.64 238.12 261.79 238.37 272.93 238.18 C 272.98 241.67 273.11 245.17 272.91 248.67 C 270.51 245.84 269.91 241.34 266.00 240.00 C 261.54 238.48 256.69 239.60 252.07 239.19 C 251.91 245.03 252.07 250.88 251.96 256.73 C 255.19 256.70 259.00 257.10 261.46 254.56 C 263.03 252.50 263.22 249.72 264.86 247.69 C 265.11 254.01 265.03 260.34 264.91 266.65 C 262.90 264.78 263.38 261.54 261.35 259.69 C 259.06 256.88 255.14 257.93 252.00 257.75 C 252.00 264.50 252.00 271.25 252.00 278.00 C 256.39 277.89 260.79 278.24 265.17 277.83 C 270.37 276.70 273.62 271.47 274.21 266.45 L 275.28 266.51 C 275.24 270.75 275.25 274.99 275.23 279.24 C 264.84 279.27 254.45 279.22 244.06 279.27 C 242.27 279.28 240.46 279.21 238.73 278.76 C 241.00 277.68 243.56 278.01 246.00 277.99 C 245.94 265.05 246.12 252.12 245.90 239.18 C 243.81 238.93 241.10 240.09 239.49 238.31 Z" />
<path fill="#231f20" opacity="1.00" d=" M 327.11 238.20 C 333.50 238.35 339.89 238.10 346.29 238.34 C 344.23 239.80 341.60 239.14 339.27 239.24 C 339.20 252.14 339.33 265.04 339.20 277.94 C 341.38 277.98 343.57 277.99 345.76 278.01 L 345.63 279.27 C 339.49 279.10 333.33 279.52 327.21 279.08 L 326.35 278.09 C 328.64 277.99 330.94 277.99 333.24 277.99 C 333.15 265.05 333.46 252.11 333.08 239.18 C 331.05 239.22 329.03 239.24 327.02 239.25 L 327.11 238.20 Z" />
<path fill="#231f20" opacity="1.00" d=" M 387.54 238.33 C 394.13 238.20 400.72 238.17 407.31 238.35 C 405.23 239.75 402.60 239.14 400.26 239.26 C 400.20 252.15 400.33 265.04 400.19 277.93 C 405.15 277.75 410.35 278.78 415.14 277.17 C 419.85 275.29 420.85 269.92 423.32 266.12 C 423.66 270.49 423.47 274.87 423.47 279.25 C 411.57 279.23 399.68 279.28 387.78 279.23 L 387.75 278.00 C 389.91 277.99 392.07 277.99 394.24 277.99 C 394.13 265.05 394.49 252.10 394.06 239.17 C 391.93 238.96 389.22 240.07 387.54 238.33 Z" />
<path fill="#231f20" opacity="1.00" d=" M 466.36 238.47 C 478.20 237.92 490.08 238.45 501.94 238.20 C 501.99 241.90 502.10 245.61 501.87 249.32 C 500.14 246.87 499.64 243.65 497.29 241.62 C 494.66 239.01 490.67 239.20 487.26 239.21 C 487.21 252.12 487.31 265.04 487.21 277.96 C 489.38 277.98 491.54 277.99 493.71 278.00 L 493.69 279.26 C 487.52 279.11 481.33 279.51 475.18 279.08 L 474.37 278.08 C 476.65 277.98 478.94 277.99 481.24 277.99 C 481.17 265.04 481.42 252.08 481.11 239.13 C 477.60 239.20 473.46 239.10 470.91 241.95 C 468.85 243.90 468.59 247.03 466.59 248.98 C 466.44 245.48 466.57 241.97 466.36 238.47 Z" />
<path fill="#231f20" opacity="1.00" d=" M 504.59 238.81 C 510.92 237.50 517.53 238.62 523.97 238.23 L 523.97 239.26 C 521.94 239.24 519.92 239.22 517.90 239.18 C 517.55 248.12 517.86 257.06 517.73 266.00 C 517.70 270.00 518.01 274.72 521.37 277.44 C 526.88 280.58 535.34 278.94 538.17 272.91 C 539.46 270.48 539.47 267.63 539.52 264.96 C 539.48 256.39 539.50 247.81 539.50 239.24 C 537.33 238.82 534.22 240.39 532.68 238.30 C 537.41 238.16 542.15 238.31 546.88 238.20 L 546.99 239.23 C 544.90 239.47 542.31 238.58 540.54 239.80 C 540.39 249.55 540.61 259.31 540.46 269.06 C 540.26 274.23 535.98 278.64 530.99 279.57 C 525.93 280.45 520.17 280.31 515.91 277.10 C 512.82 274.74 511.66 270.67 511.74 266.93 C 511.75 257.71 511.76 248.48 511.74 239.26 C 509.35 239.27 506.93 239.34 504.59 238.81 Z" />
<path fill="#231f20" opacity="1.00" d=" M 550.11 238.21 C 557.46 238.62 564.84 237.52 572.18 238.28 C 577.32 238.75 582.14 243.70 581.09 249.05 C 580.50 253.35 576.37 256.40 572.20 256.69 C 574.99 257.72 578.06 258.51 580.23 260.68 C 584.32 265.59 580.67 273.33 584.98 278.03 C 588.24 277.81 591.60 277.60 594.95 278.07 C 600.33 264.46 605.10 250.58 610.85 237.15 L 612.09 237.21 C 617.71 250.66 622.65 264.40 627.97 277.98 C 629.65 277.99 631.33 278.00 633.02 278.02 L 633.00 279.24 C 627.11 279.15 621.22 279.46 615.35 279.11 L 614.63 278.06 C 616.87 277.98 619.11 277.99 621.36 277.98 C 619.29 272.79 617.58 267.45 615.21 262.39 C 610.84 262.62 606.45 262.38 602.08 262.60 C 600.29 267.78 598.13 272.82 596.33 277.99 C 598.64 277.99 600.98 277.92 603.25 278.45 C 602.09 279.58 600.41 279.21 598.97 279.28 C 595.71 279.21 592.41 279.48 589.19 278.88 C 585.69 279.72 581.29 280.25 578.53 277.42 C 574.68 272.36 577.93 265.01 574.10 259.95 C 571.06 256.72 566.13 257.88 562.18 257.89 C 562.30 264.57 562.28 271.25 562.19 277.92 C 564.36 277.98 566.54 278.00 568.73 278.01 L 568.65 279.27 C 562.36 279.23 556.08 279.26 549.79 279.24 L 549.74 278.00 C 551.90 278.00 554.07 278.00 556.24 278.00 C 556.15 265.06 556.45 252.11 556.09 239.18 C 554.05 239.22 552.01 239.24 549.97 239.25 L 550.11 238.21 M 562.24 239.19 C 562.25 245.05 562.25 250.91 562.25 256.77 C 565.97 256.64 570.73 257.41 573.26 253.95 C 575.06 250.50 574.98 246.06 573.51 242.51 C 571.37 238.50 566.09 238.85 562.24 239.19 M 608.34 246.07 C 606.74 251.29 604.49 256.28 602.70 261.43 C 606.76 261.53 610.83 261.48 614.89 261.56 C 613.64 257.52 611.94 253.64 610.52 249.66 C 609.94 248.39 609.66 246.81 608.34 246.07 Z" />
<path fill="#231f20" opacity="1.00" d=" M 2.31 319.79 C 2.97 315.51 5.53 310.87 10.05 309.83 C 14.15 308.61 18.88 310.95 20.28 315.03 C 17.14 316.31 16.08 311.85 13.07 311.98 C 9.12 311.39 6.24 315.10 5.35 318.53 C 4.22 323.18 4.38 328.55 7.16 332.61 C 8.58 334.77 11.49 336.15 14.00 335.19 C 16.58 334.73 17.28 330.65 20.28 331.98 C 19.26 334.25 17.69 337.07 14.87 337.11 C 11.82 336.98 8.00 337.86 5.84 335.12 C 2.04 331.08 1.48 325.03 2.31 319.79 Z" />
<path fill="#231f20" opacity="1.00" d=" M 29.43 310.50 C 33.74 308.17 39.47 310.18 41.60 314.53 C 44.70 320.89 44.62 329.35 40.09 335.03 C 38.22 337.53 34.89 337.05 32.15 337.07 C 27.21 337.55 24.56 332.10 23.83 327.98 C 22.89 321.89 23.51 313.92 29.43 310.50 M 31.98 312.13 C 27.95 313.44 26.45 318.13 26.25 321.98 C 26.00 326.38 26.52 331.72 30.38 334.53 C 33.34 336.67 37.61 334.99 39.08 331.88 C 41.63 326.98 41.67 320.78 39.29 315.81 C 38.07 313.09 34.94 311.30 31.98 312.13 Z" />
<path fill="#231f20" opacity="1.00" d=" M 48.40 310.12 C 49.05 310.11 50.35 310.07 51.00 310.05 C 55.15 316.89 58.91 324.01 62.66 331.09 C 63.40 324.08 62.82 317.00 63.00 309.96 C 63.70 309.99 65.11 310.06 65.81 310.10 C 65.71 319.10 65.75 328.11 65.78 337.11 C 64.39 337.02 62.67 337.35 62.23 335.62 C 58.50 329.04 55.12 322.26 51.20 315.79 C 51.30 322.92 51.23 330.04 51.24 337.16 C 50.54 337.08 49.12 336.90 48.41 336.81 C 48.55 327.92 48.57 319.02 48.40 310.12 Z" />
<path fill="#231f20" opacity="1.00" d=" M 76.01 310.97 C 80.19 308.10 87.07 309.63 88.84 314.61 C 86.93 316.39 85.67 313.72 84.14 312.83 C 81.20 310.84 76.94 312.36 75.33 315.37 C 72.58 320.32 72.58 326.72 75.16 331.74 C 76.90 335.08 81.32 336.70 84.61 334.53 C 87.83 332.92 86.09 328.82 86.48 325.99 C 84.37 325.38 78.06 327.73 79.46 323.82 C 82.64 323.63 85.82 323.78 89.00 323.77 C 89.00 327.23 88.98 330.69 89.03 334.16 C 85.97 338.03 80.66 337.45 76.35 336.64 C 72.08 334.05 70.61 328.70 70.70 323.99 C 70.51 319.22 71.80 313.77 76.01 310.97 Z" />
<path fill="#231f20" opacity="1.00" d=" M 94.21 310.05 C 98.31 310.30 103.02 308.97 106.62 311.52 C 111.19 315.48 109.87 324.35 103.75 326.07 C 105.70 329.78 107.84 333.42 109.51 337.28 C 108.11 337.12 106.23 337.30 105.77 335.59 C 104.16 332.35 102.55 329.13 100.85 325.95 C 99.43 326.02 98.01 326.10 96.59 326.21 C 96.77 329.85 96.95 333.51 96.60 337.15 C 96.02 337.09 94.87 336.98 94.30 336.93 C 94.13 327.97 94.34 319.01 94.21 310.05 M 96.74 312.27 C 96.76 316.09 96.75 319.91 96.75 323.73 C 98.82 323.73 100.90 323.87 102.96 323.64 C 107.51 322.33 107.78 315.00 103.92 312.77 C 101.62 311.93 99.13 312.32 96.74 312.27 Z" />
<path fill="#231f20" opacity="1.00" d=" M 114.38 310.14 C 118.92 309.88 123.47 310.03 128.02 310.00 C 128.01 310.56 127.99 311.68 127.98 312.24 C 124.34 312.25 120.69 312.27 117.05 312.21 C 116.99 315.55 116.99 318.89 117.00 322.24 C 120.59 322.23 124.18 322.25 127.77 322.25 C 127.76 322.82 127.72 323.96 127.70 324.53 C 124.13 324.47 120.56 324.50 116.99 324.52 C 117.00 328.01 117.00 331.51 117.00 335.00 C 120.73 334.99 124.45 335.00 128.18 335.01 C 128.09 335.51 127.90 336.50 127.80 336.99 C 123.37 337.55 118.79 337.93 114.40 336.84 C 114.55 327.94 114.59 319.04 114.38 310.14 Z" />
<path fill="#231f20" opacity="1.00" d=" M 136.16 310.26 C 138.81 309.10 141.90 309.40 144.45 310.69 C 145.61 311.26 147.88 312.63 145.85 313.99 C 143.49 313.37 141.45 311.42 138.84 312.01 C 135.79 312.13 133.48 316.07 135.50 318.60 C 138.00 321.59 142.25 322.20 144.99 324.93 C 148.40 328.06 147.90 334.49 143.77 336.78 C 140.91 337.17 137.99 337.12 135.11 336.97 C 133.22 336.63 129.59 334.06 132.79 332.61 C 135.13 334.26 137.92 336.34 140.95 335.22 C 144.67 334.58 145.78 329.31 143.07 326.92 C 140.48 324.63 136.95 323.80 134.31 321.60 C 130.77 318.59 131.65 311.88 136.16 310.26 Z" />
<path fill="#231f20" opacity="1.00" d=" M 156.56 310.68 C 160.75 308.21 166.64 309.86 168.88 314.18 C 172.15 320.44 172.17 328.99 167.78 334.74 C 165.32 338.15 160.65 336.93 157.07 336.89 C 152.46 334.51 150.94 328.80 150.96 323.97 C 150.89 319.11 152.16 313.43 156.56 310.68 M 159.13 312.22 C 155.98 313.41 154.49 316.87 153.96 319.97 C 153.45 324.10 153.46 328.64 155.74 332.30 C 157.11 334.68 160.25 336.31 162.91 335.14 C 165.43 334.32 166.84 331.79 167.64 329.44 C 169.04 324.67 168.82 319.21 166.22 314.88 C 164.83 312.49 161.75 311.38 159.13 312.22 Z" />
<path fill="#231f20" opacity="1.00" d=" M 185.00 310.01 C 189.35 310.21 194.39 309.04 198.06 312.07 C 201.89 315.11 202.77 320.37 202.53 324.99 C 202.44 329.49 200.50 334.52 196.13 336.45 C 192.59 337.84 188.70 337.42 185.00 337.19 C 184.99 328.13 185.00 319.07 185.00 310.01 M 187.38 312.43 C 187.64 319.96 187.42 327.50 187.51 335.04 C 190.51 334.90 194.00 335.56 196.45 333.36 C 201.14 328.38 201.20 319.46 196.75 314.32 C 194.33 311.80 190.56 312.12 187.38 312.43 Z" />
<path fill="#231f20" opacity="1.00" d=" M 207.42 310.11 C 212.08 309.90 216.74 310.03 221.40 310.00 C 221.32 310.54 221.14 311.62 221.05 312.16 C 217.46 312.38 213.85 312.21 210.26 312.24 C 210.26 315.53 210.27 318.82 210.19 322.12 C 213.75 322.31 217.32 322.28 220.88 322.19 C 220.94 322.76 221.05 323.89 221.10 324.46 C 217.50 324.51 213.89 324.54 210.29 324.45 C 210.25 327.94 210.25 331.44 210.20 334.94 C 213.84 335.06 217.49 334.89 221.14 335.07 C 221.14 335.55 221.15 336.52 221.16 337.00 C 216.62 337.73 211.95 337.66 207.42 336.90 C 207.55 327.97 207.55 319.04 207.42 310.11 Z" />
<path fill="#231f20" opacity="1.00" d=" M 226.02 309.80 C 226.63 309.96 227.85 310.28 228.46 310.44 C 228.61 318.63 228.40 326.84 228.54 335.03 C 231.87 335.02 235.21 334.89 238.55 335.06 C 238.53 335.57 238.50 336.58 238.49 337.09 C 234.34 337.72 230.15 337.39 225.99 337.11 C 226.02 328.01 225.97 318.90 226.02 309.80 Z" />
<path fill="#231f20" opacity="1.00" d=" M 251.35 310.16 C 255.95 309.92 260.58 309.91 265.19 310.07 C 265.18 310.59 265.18 311.64 265.18 312.16 C 261.53 312.37 257.89 312.22 254.25 312.25 C 254.26 315.55 254.27 318.86 254.20 322.16 C 257.70 322.33 261.20 322.16 264.70 322.26 C 264.85 322.80 265.15 323.88 265.30 324.42 C 261.63 324.54 257.96 324.53 254.29 324.46 C 254.25 327.95 254.25 331.44 254.20 334.93 C 257.82 335.07 261.46 334.88 265.09 335.08 C 265.08 335.58 265.07 336.57 265.06 337.07 C 260.56 337.72 255.88 337.65 251.39 336.85 C 251.54 327.95 251.63 319.05 251.35 310.16 Z" />
<path fill="#231f20" opacity="1.00" d=" M 269.46 317.88 C 267.97 311.96 275.00 307.90 280.05 310.01 C 281.65 310.51 285.20 312.04 282.91 314.02 C 280.85 313.52 279.19 311.73 276.95 311.95 C 273.64 311.54 270.53 315.59 272.65 318.50 C 275.12 321.50 279.29 322.20 282.08 324.84 C 285.60 327.92 285.20 334.68 280.86 336.83 C 276.81 337.11 271.09 338.43 268.61 334.22 C 268.92 333.78 269.53 332.89 269.84 332.45 C 272.09 334.24 274.87 336.16 277.91 335.31 C 281.22 334.90 282.87 330.64 281.11 327.95 C 278.04 323.65 270.53 323.82 269.46 317.88 Z" />
<path fill="#231f20" opacity="1.00" d=" M 287.01 310.00 C 292.34 310.00 297.66 310.00 302.99 310.00 C 303.00 310.56 303.01 311.67 303.02 312.23 C 300.76 312.24 298.50 312.24 296.24 312.27 C 296.19 320.47 296.39 328.67 296.16 336.87 C 295.56 336.95 294.36 337.10 293.76 337.18 C 293.73 328.87 293.78 320.55 293.73 312.24 C 291.48 312.24 289.23 312.24 286.98 312.24 C 286.99 311.68 287.00 310.56 287.01 310.00 Z" />
<path fill="#231f20" opacity="1.00" d=" M 310.44 310.14 C 311.52 310.10 312.61 310.07 313.71 310.06 C 316.14 319.26 319.52 328.20 321.72 337.45 C 317.78 337.68 318.19 333.15 317.13 330.53 C 313.74 330.48 310.36 330.45 306.98 330.58 C 306.02 333.19 306.45 337.83 302.41 337.45 C 304.70 328.24 308.04 319.32 310.44 310.14 M 307.74 328.22 C 310.64 328.24 313.55 328.25 316.46 328.25 C 315.18 323.46 313.65 318.74 312.35 313.96 C 310.13 318.45 309.23 323.46 307.74 328.22 Z" />
<path fill="#231f20" opacity="1.00" d=" M 325.20 310.06 C 329.46 310.18 334.39 309.08 338.02 311.94 C 342.00 314.94 342.99 320.34 342.74 325.03 C 342.53 329.26 340.93 333.91 337.05 336.11 C 333.43 338.13 329.12 337.36 325.20 336.99 C 325.27 328.01 325.28 319.03 325.20 310.06 M 327.84 312.15 C 327.66 319.78 327.78 327.41 327.77 335.03 C 331.11 335.01 335.18 335.52 337.44 332.46 C 340.90 327.83 340.87 320.92 338.20 315.93 C 336.22 312.12 331.55 312.07 327.84 312.15 Z" />
<path fill="#231f20" opacity="1.00" d=" M 353.26 310.28 C 356.01 309.10 359.32 309.33 361.85 310.96 C 365.35 313.45 366.76 317.87 366.99 322.00 C 367.26 326.63 366.53 331.78 363.17 335.26 C 360.66 338.16 356.39 337.03 353.06 336.89 C 348.58 334.89 347.12 329.43 346.86 324.93 C 346.62 319.55 347.91 312.87 353.26 310.28 M 355.10 312.23 C 352.56 313.06 351.03 315.54 350.31 317.98 C 349.06 322.46 349.16 327.48 351.28 331.69 C 352.60 334.36 355.97 336.44 358.92 335.09 C 362.13 333.84 363.64 330.19 364.09 327.00 C 364.56 322.49 364.45 317.24 361.16 313.74 C 359.68 312.04 357.20 311.56 355.10 312.23 Z" />
<path fill="#231f20" opacity="1.00" d=" M 381.00 310.00 C 385.11 310.20 389.77 309.16 393.38 311.67 C 397.84 314.81 398.91 320.81 398.40 325.91 C 398.04 330.08 396.15 334.67 392.07 336.44 C 388.54 337.77 384.67 337.49 380.99 337.19 C 381.01 328.13 380.99 319.06 381.00 310.00 M 383.64 312.10 C 383.33 319.74 383.56 327.39 383.52 335.04 C 386.91 335.06 391.04 335.46 393.29 332.32 C 396.70 327.50 396.62 320.45 393.61 315.45 C 391.53 312.01 387.14 312.20 383.64 312.10 Z" />
<path fill="#231f20" opacity="1.00" d=" M 403.40 310.14 C 408.08 309.88 412.76 310.03 417.44 310.01 C 417.33 310.55 417.12 311.61 417.01 312.15 C 413.36 312.40 409.70 312.22 406.06 312.20 C 405.99 315.54 405.98 318.89 406.00 322.24 C 409.60 322.23 413.20 322.26 416.80 322.26 C 416.77 322.83 416.71 323.97 416.69 324.54 C 413.12 324.47 409.56 324.50 406.00 324.52 C 406.00 328.01 406.00 331.50 406.00 335.00 C 409.80 334.99 413.61 335.01 417.42 335.00 C 417.33 335.50 417.14 336.50 417.04 337.00 C 412.54 337.70 407.87 337.93 403.41 336.84 C 403.55 327.94 403.56 319.04 403.40 310.14 Z" />
<path fill="#231f20" opacity="1.00" d=" M 433.58 312.56 C 437.03 308.53 443.99 308.53 447.35 312.70 C 448.65 313.43 447.58 316.72 446.19 314.95 C 444.44 313.43 442.51 311.57 439.97 311.97 C 435.99 312.27 433.79 316.26 433.16 319.78 C 432.22 324.72 432.75 330.75 436.77 334.26 C 439.61 336.56 443.58 335.38 446.02 333.09 C 445.98 330.72 445.98 328.36 446.01 325.99 C 443.65 326.00 441.29 326.08 438.94 325.93 C 438.86 325.38 438.69 324.30 438.61 323.75 C 441.89 323.75 445.18 323.75 448.48 323.75 C 447.84 327.95 450.53 334.17 445.64 336.46 C 442.62 337.45 439.23 337.16 436.10 336.82 C 432.68 334.84 430.79 330.95 430.32 327.14 C 429.62 322.14 430.29 316.57 433.58 312.56 Z" />
<path fill="#231f20" opacity="1.00" d=" M 453.76 309.98 C 454.38 309.99 455.63 310.01 456.25 310.02 C 456.25 315.67 456.25 321.32 456.23 326.98 C 456.29 328.93 456.16 331.04 457.15 332.81 C 459.00 336.35 465.00 336.52 466.93 332.98 C 467.99 331.20 467.94 329.03 468.01 327.03 C 468.01 321.36 467.99 315.68 468.00 310.01 C 468.62 310.00 469.86 309.98 470.48 309.98 C 470.49 316.31 470.54 322.65 470.48 328.98 C 470.52 331.96 469.46 335.21 466.74 336.77 C 462.36 337.18 455.84 338.47 454.32 332.85 C 453.04 325.34 454.07 317.58 453.76 309.98 Z" />
<path fill="#231f20" opacity="1.00" d=" M 481.45 310.10 C 482.54 310.10 483.63 310.11 484.73 310.13 C 487.10 319.31 490.48 328.20 492.71 337.41 C 488.79 337.72 489.16 333.18 488.15 330.58 C 484.76 330.45 481.37 330.48 477.99 330.54 C 477.00 333.19 477.44 337.76 473.40 337.48 C 475.65 328.24 478.98 319.29 481.45 310.10 M 482.84 313.92 C 481.53 318.71 480.01 323.43 478.70 328.22 C 481.62 328.25 484.55 328.25 487.48 328.24 C 485.85 323.50 485.10 318.39 482.84 313.92 Z" />
<path fill="#231f20" opacity="1.00" d=" M 496.20 310.04 C 496.85 310.05 498.16 310.05 498.81 310.06 C 502.56 317.14 506.41 324.19 510.48 331.10 C 510.54 324.06 510.46 317.02 510.52 309.98 C 511.20 309.99 512.56 310.00 513.24 310.00 C 513.25 319.13 513.27 328.27 513.23 337.40 C 512.51 337.20 511.08 336.81 510.36 336.61 C 506.34 330.03 503.28 322.86 498.92 316.50 C 498.57 323.33 498.82 330.17 498.77 337.01 C 498.13 337.00 496.84 336.96 496.19 336.95 C 496.29 327.98 496.27 319.01 496.20 310.04 Z" />
<path fill="#231f20" opacity="1.00" d=" M 524.52 310.22 C 525.60 310.13 526.68 310.05 527.78 309.98 C 530.39 319.08 533.31 328.08 536.00 337.15 C 531.92 338.33 532.36 332.94 531.22 330.49 C 527.84 330.50 524.47 330.45 521.10 330.59 C 520.11 333.21 520.61 337.79 516.55 337.41 C 518.81 328.23 522.19 319.38 524.52 310.22 M 521.82 328.21 C 524.76 328.29 527.72 328.32 530.66 328.00 C 529.13 323.28 527.74 318.52 526.45 313.74 C 524.40 318.38 523.35 323.39 521.82 328.21 Z" />
<path fill="#231f20" opacity="1.00" d=" M 547.00 309.88 C 547.60 309.94 548.80 310.06 549.40 310.12 C 549.65 316.74 549.43 323.37 549.51 330.00 C 549.63 332.54 548.99 335.35 546.72 336.83 C 544.20 337.23 541.62 337.14 539.09 336.89 C 537.40 336.95 535.88 333.97 538.05 333.38 C 539.81 334.37 541.68 336.19 543.89 335.28 C 546.19 334.72 547.13 332.22 546.99 330.08 C 547.04 323.34 546.97 316.61 547.00 309.88 Z" />
<path fill="#231f20" opacity="1.00" d=" M 555.62 310.10 C 556.21 310.05 557.40 309.94 558.00 309.89 C 558.14 316.88 557.71 323.91 558.21 330.89 C 558.69 335.16 564.32 336.95 567.50 334.34 C 569.68 332.59 569.70 329.57 569.76 327.03 C 569.77 321.36 569.73 315.68 569.75 310.00 C 570.37 310.00 571.62 309.99 572.24 309.99 C 572.18 316.64 572.40 323.30 572.15 329.94 C 572.12 333.37 569.80 337.63 565.83 337.08 C 563.08 336.92 559.56 337.89 557.57 335.45 C 555.19 332.92 555.46 329.23 555.48 326.03 C 555.61 320.72 555.30 315.40 555.62 310.10 Z" />
<path fill="#231f20" opacity="1.00" d=" M 583.19 310.00 C 583.94 310.03 585.42 310.09 586.17 310.12 C 589.18 319.14 591.96 328.28 594.51 337.46 C 590.46 337.85 590.84 333.24 589.92 330.59 C 586.53 330.44 583.14 330.48 579.76 330.54 C 579.11 332.71 578.49 334.90 577.93 337.10 C 577.20 337.09 575.73 337.08 575.00 337.08 C 577.73 328.05 580.63 319.07 583.19 310.00 M 584.57 313.84 C 583.24 318.62 581.90 323.40 580.30 328.10 C 583.25 328.26 586.21 328.30 589.17 328.21 C 587.64 323.42 586.71 318.40 584.57 313.84 Z" />
<path fill="#231f20" opacity="1.00" d=" M 594.01 310.00 C 599.34 310.00 604.67 310.00 610.00 310.00 C 610.00 310.56 610.00 311.68 610.01 312.24 C 607.75 312.24 605.50 312.25 603.25 312.26 C 603.24 320.55 603.27 328.84 603.23 337.13 C 602.61 337.12 601.38 337.10 600.76 337.09 C 600.74 328.81 600.74 320.54 600.76 312.27 C 598.50 312.24 596.24 312.24 593.99 312.23 C 593.99 311.67 594.00 310.56 594.01 310.00 Z" />
<path fill="#231f20" opacity="1.00" d=" M 618.34 310.43 C 621.74 308.72 626.24 309.48 628.76 312.38 C 631.33 315.24 632.24 319.24 632.29 323.00 C 632.41 327.15 631.72 331.68 628.84 334.88 C 626.36 338.24 621.57 337.01 618.02 336.79 C 613.56 334.36 612.19 328.74 612.20 324.01 C 612.04 318.98 613.46 312.89 618.34 310.43 M 620.10 312.32 C 616.04 314.14 615.00 319.10 614.79 323.11 C 614.82 327.07 615.51 331.60 618.72 334.31 C 621.45 336.51 625.72 335.43 627.42 332.47 C 630.21 327.88 630.28 321.92 628.48 316.95 C 627.36 313.59 623.69 310.79 620.10 312.32 Z" />
</g>
<g id="#b08239ff">
<path fill="#b08239" opacity="1.00" d=" M 152.38 243.57 L 152.77 243.23 C 154.26 248.56 156.92 253.49 158.23 258.88 C 155.76 258.94 153.28 258.96 150.81 258.93 L 150.28 258.93 C 148.67 254.25 146.71 249.71 145.01 245.07 C 147.45 244.75 150.52 245.62 152.38 243.57 Z" />
</g>
<g id="#b78a3eff">
<path fill="#b78a3e" opacity="1.00" d=" M 10.03 251.92 C 12.50 251.92 14.98 251.91 17.45 251.90 C 17.49 254.96 17.48 258.03 17.46 261.11 C 14.98 261.07 12.50 261.03 10.02 260.99 C 10.00 257.97 9.98 254.94 10.03 251.92 Z" />
<path fill="#b78a3e" opacity="1.00" d=" M 115.32 251.95 C 117.87 251.93 120.42 251.90 122.97 251.86 C 123.01 254.89 123.01 257.92 123.00 260.96 C 120.44 260.95 117.89 260.95 115.33 260.95 C 115.33 257.95 115.29 254.95 115.32 251.95 Z" />
</g>
<g id="#c49845ff">
<path fill="#c49845" opacity="1.00" d=" M 150.81 258.93 C 153.28 258.96 155.76 258.94 158.23 258.88 L 158.71 258.87 C 159.97 262.38 161.37 265.83 162.47 269.40 C 159.93 269.91 157.34 269.98 154.76 270.08 C 153.37 266.39 151.47 262.85 150.81 258.93 Z" />
</g>
<g id="#c79b47ff">
<path fill="#c79b47" opacity="1.00" d=" M 10.02 260.99 C 12.50 261.03 14.98 261.07 17.46 261.11 C 17.49 264.42 17.47 267.73 17.46 271.04 C 14.98 271.02 12.51 271.01 10.04 271.01 C 9.99 267.67 9.97 264.33 10.02 260.99 Z" />
<path fill="#c79b47" opacity="1.00" d=" M 77.67 261.16 C 80.49 260.95 83.32 260.85 86.15 260.96 L 86.76 260.97 C 88.58 264.53 90.98 267.75 92.70 271.36 C 90.01 271.79 87.30 272.05 84.58 272.17 L 84.19 272.19 C 82.16 268.43 79.61 264.97 77.67 261.16 Z" />
</g>
<g id="#c59946ff">
<path fill="#c59946" opacity="1.00" d=" M 115.33 260.95 C 117.89 260.95 120.44 260.95 123.00 260.96 C 123.00 263.99 122.99 267.02 122.98 270.05 C 120.43 270.01 117.89 269.98 115.35 269.96 C 115.35 266.95 115.32 263.95 115.33 260.95 Z" />
</g>
<g id="#d4aa50ff">
<path fill="#d4aa50" opacity="1.00" d=" M 44.25 267.26 C 44.94 265.73 44.98 263.67 46.65 262.82 C 46.96 268.23 46.66 273.66 46.76 279.08 C 33.18 279.50 19.59 279.10 6.01 279.28 C 4.57 279.01 2.42 279.83 1.66 278.12 C 4.44 278.01 7.22 278.03 10.00 278.02 C 10.01 275.68 10.01 273.35 10.04 271.01 C 12.51 271.01 14.98 271.02 17.46 271.04 C 17.45 273.29 17.41 275.54 17.34 277.80 C 22.62 278.14 27.94 278.24 33.21 277.73 C 38.73 277.11 42.60 272.23 44.25 267.26 Z" />
<path fill="#d4aa50" opacity="1.00" d=" M 92.70 271.36 L 92.99 271.31 C 94.36 273.52 95.72 275.73 97.06 277.97 C 99.17 277.99 101.28 278.02 103.39 278.16 C 102.47 279.71 100.49 279.08 99.04 279.29 C 93.16 279.09 87.23 279.57 81.37 279.04 L 80.61 278.18 C 83.03 278.02 85.46 277.96 87.89 277.87 C 86.62 276.07 85.48 274.18 84.58 272.17 C 87.30 272.05 90.01 271.79 92.70 271.36 Z" />
</g>
<g id="#d1a74eff">
<path fill="#d1a74e" opacity="1.00" d=" M 162.47 269.40 C 163.57 268.75 164.15 267.55 164.95 266.61 L 164.96 268.18 C 164.10 272.18 162.25 275.97 160.76 279.79 C 160.29 279.91 159.36 280.17 158.89 280.29 C 157.10 277.07 156.11 273.49 154.76 270.08 C 157.34 269.98 159.93 269.91 162.47 269.40 Z" />
</g>
<g id="#d3a84fff">
<path fill="#d3a84f" opacity="1.00" d=" M 115.35 269.96 C 117.89 269.98 120.43 270.01 122.98 270.05 C 123.00 272.72 123.00 275.38 122.98 278.05 C 125.63 278.04 128.28 278.03 130.93 278.03 L 131.02 279.17 C 124.69 279.33 118.36 279.21 112.03 279.28 C 110.24 279.17 108.21 279.54 106.71 278.31 C 109.65 278.09 112.60 278.01 115.54 277.73 C 115.39 275.14 115.33 272.55 115.35 269.96 Z" />
</g>
<g id="#e4bb5aff">
<path fill="#e4bb5a" opacity="1.00" d=" M 0.61 294.22 C 1.06 292.07 3.46 292.70 4.99 292.52 C 15.14 292.76 25.34 292.22 35.47 292.76 L 36.55 294.25 C 24.58 294.61 12.58 294.55 0.61 294.22 Z" />
</g>
<g id="#d4a950ff">
<path fill="#d4a950" opacity="1.00" d=" M 35.47 292.76 C 47.16 292.44 58.89 292.38 70.59 292.74 L 69.47 294.26 C 58.52 294.62 47.49 294.58 36.55 294.25 L 35.47 292.76 Z" />
</g>
<g id="#bd9141ff">
<path fill="#bd9141" opacity="1.00" d=" M 70.59 292.74 C 85.39 292.27 100.24 292.67 115.06 292.51 C 120.21 292.64 125.39 292.19 130.52 292.68 L 131.57 294.32 C 110.88 294.62 90.16 294.58 69.47 294.26 L 70.59 292.74 Z" />
</g>
<g id="#9b6b2cff">
<path fill="#9b6b2c" opacity="1.00" d=" M 130.52 292.68 C 177.68 292.31 224.86 292.57 272.03 292.51 C 277.18 292.63 282.35 292.29 287.49 292.66 L 288.52 294.35 C 241.02 294.67 193.51 294.46 146.01 294.46 C 141.20 294.35 136.37 294.67 131.57 294.32 L 130.52 292.68 Z" />
</g>
<g id="#bb8d3fff">
<path fill="#bb8d3f" opacity="1.00" d=" M 380.00 292.68 C 410.00 292.31 440.03 292.60 470.04 292.58 L 469.98 294.30 C 439.99 294.64 409.98 294.45 379.99 294.44 L 380.00 292.68 Z" />
</g>
<g id="#cb9f49ff">
<path fill="#cb9f49" opacity="1.00" d=" M 470.04 292.58 C 498.20 292.55 526.38 292.37 554.53 292.70 L 555.49 294.30 C 528.99 294.68 502.47 294.33 475.96 294.52 C 473.96 294.53 471.96 294.53 469.98 294.30 L 470.04 292.58 Z" />
</g>
<g id="#dbaf53ff">
<path fill="#dbaf53" opacity="1.00" d=" M 554.53 292.70 C 579.00 292.29 603.48 292.70 627.96 292.52 C 629.44 292.82 632.18 291.84 632.29 294.26 C 612.19 294.68 592.07 294.33 571.96 294.47 C 566.47 294.31 560.96 294.76 555.49 294.30 L 554.53 292.70 Z" />
</g>
</svg>
