<?xml version="1.0" encoding="UTF-8" ?>
<!DOCTYPE svg PUBLIC "-//W3C//DTD SVG 1.1//EN" "http://www.w3.org/Graphics/SVG/1.1/DTD/svg11.dtd">
<svg width="801pt" height="885pt" viewBox="0 0 801 885" version="1.1" xmlns="http://www.w3.org/2000/svg">
<g id="#ffffffff">
</g>
<g id="#000000ff">
<path fill="#fff" opacity="1.00" d=" M 151.60 87.05 C 136.37 67.21 133.09 39.06 143.59 16.33 C 181.39 33.48 216.15 57.22 246.15 85.89 C 274.56 112.95 297.94 145.07 316.22 179.74 C 331.43 208.79 344.03 239.39 351.87 271.29 C 353.28 276.91 356.35 282.75 354.67 288.62 C 353.42 291.65 349.55 290.50 347.02 290.88 C 278.77 293.21 212.03 322.50 163.82 370.80 C 146.71 387.65 132.03 406.91 119.91 427.63 C 117.55 404.80 119.52 381.39 126.47 359.48 C 134.08 344.99 137.00 327.97 133.70 311.86 C 129.28 287.18 110.95 265.63 87.15 257.60 C 60.93 250.13 41.20 225.40 38.55 198.41 C 52.79 190.90 64.65 178.87 71.35 164.18 C 76.39 153.11 78.89 140.71 77.67 128.56 C 80.14 127.30 82.73 126.28 85.33 125.31 C 97.28 101.06 124.45 84.68 151.60 87.05 Z" />
<path fill="#fff" opacity="1.00" d=" M 320.82 295.33 C 373.41 288.32 428.19 296.61 475.88 320.06 C 509.10 336.17 538.85 359.31 562.86 387.35 C 588.44 417.12 607.53 452.45 618.41 490.18 C 627.32 520.88 630.68 553.17 628.32 585.05 C 627.95 586.63 628.89 588.01 629.55 589.38 C 640.48 610.97 647.07 634.75 648.73 658.89 C 650.64 690.58 644.61 722.91 630.44 751.40 C 616.47 779.97 595.11 804.99 568.70 822.78 C 540.90 841.76 507.65 852.55 474.03 853.78 C 433.98 855.63 393.41 843.78 360.84 820.38 C 362.32 794.35 341.55 769.75 316.07 765.49 C 298.05 762.11 278.42 768.64 266.29 782.45 C 260.70 799.20 248.71 813.76 232.89 821.76 C 208.15 834.81 175.41 830.08 155.50 810.39 C 146.75 802.20 140.59 791.44 137.38 779.94 C 166.67 759.13 189.37 729.05 200.59 694.86 C 213.89 655.32 212.37 610.87 195.54 572.62 C 190.01 560.11 183.24 548.01 174.65 537.35 C 145.87 511.82 126.33 476.07 120.89 437.94 C 120.77 435.42 119.49 432.60 120.89 430.26 C 144.95 387.82 180.83 352.24 223.29 328.25 C 253.31 311.20 286.61 299.98 320.82 295.33 Z" />
<path fill="#fff" opacity="1.00" d=" M 608.90 360.35 C 645.92 370.38 679.96 390.85 706.57 418.43 C 734.03 446.64 753.61 482.45 762.47 520.82 C 771.81 561.05 769.37 603.94 755.57 642.87 C 745.98 670.00 730.91 695.20 711.45 716.40 C 686.39 743.92 654.03 764.68 618.63 776.15 C 637.98 747.89 649.58 714.24 651.09 679.98 C 677.94 657.56 698.68 627.74 709.64 594.48 C 723.52 553.51 722.30 507.92 707.49 467.39 C 695.93 435.60 675.72 406.95 649.38 385.71 C 637.05 375.53 623.23 367.36 608.90 360.35 Z" />
</g>
</svg>
